<svg width="170" height="57" viewBox="0 0 170 57" fill="none" xmlns="http://www.w3.org/2000/svg">
<mask id="mask0_2703_3455" style="mask-type:luminance" maskUnits="userSpaceOnUse" x="0" y="0" width="170" height="57">
<path d="M169.501 0.143585H0.266266V56.7072H169.501V0.143585Z" fill="white"/>
</mask>
<g mask="url(#mask0_2703_3455)">
<path d="M156.025 0.140228H13.7471C13.238 0.140228 12.7289 0.140228 12.2056 0.140228C11.7672 0.140228 11.3429 0.140228 10.9045 0.154369C9.95689 0.154369 9.00931 0.253355 8.07589 0.408907C7.14246 0.564456 6.23731 0.861409 5.38873 1.29978C4.54017 1.73815 3.77645 2.28964 3.09758 2.96841C2.41874 3.63303 1.85301 4.41078 1.42873 5.25923C1.00445 6.10769 0.707442 7.01269 0.55187 7.946C0.382157 8.8793 0.297299 9.82674 0.297299 10.7742C0.297299 11.2125 0.283156 11.6368 0.269012 12.0751V44.7688C0.269012 45.2072 0.269012 45.6315 0.297299 46.0699C0.297299 47.0173 0.396299 47.9648 0.55187 48.898C0.707442 49.8313 1.00445 50.7504 1.44288 51.5848C1.86716 52.4332 2.43287 53.1968 3.11173 53.8614C3.77645 54.5402 4.55431 55.0917 5.40288 55.5301C6.25145 55.9544 7.15659 56.2654 8.09003 56.421C9.02346 56.5765 9.97103 56.6614 10.9186 56.6756C11.357 56.6756 11.7813 56.6896 12.2198 56.6896C12.743 56.6896 13.2522 56.6896 13.7613 56.6896H156.025C156.534 56.6896 157.042 56.6896 157.552 56.6896C157.977 56.6896 158.429 56.6896 158.853 56.6756C159.8 56.6756 160.748 56.5765 161.681 56.421C162.616 56.2654 163.535 55.9544 164.383 55.5301C165.232 55.1059 165.996 54.5402 166.675 53.8614C167.353 53.1968 167.904 52.4191 168.344 51.5848C168.768 50.7364 169.064 49.8313 169.22 48.898C169.375 47.9648 169.461 47.0173 169.489 46.0699C169.489 45.6315 169.489 45.2072 169.489 44.7688C169.489 44.2599 169.489 43.7508 169.489 43.2275V13.6306C169.489 13.1074 169.489 12.5984 169.489 12.0893C169.489 11.6509 169.489 11.2267 169.489 10.7883C169.475 9.84087 169.389 8.89344 169.22 7.96013C169.064 7.02684 168.768 6.12182 168.344 5.27337C167.466 3.57646 166.08 2.19065 164.383 1.31393C163.535 0.889701 162.63 0.592734 161.681 0.423039C160.748 0.267496 159.8 0.182651 158.853 0.168509C158.429 0.168509 157.977 0.154369 157.552 0.154369C157.042 0.154369 156.534 0.154369 156.025 0.154369V0.140228Z" fill="#A6A6A6"/>
<path d="M12.2038 55.4724C11.7795 55.4724 11.3553 55.4724 10.931 55.4582C10.04 55.4582 9.16312 55.3734 8.28626 55.232C7.46597 55.0906 6.68812 54.836 5.93854 54.4542C5.2031 54.0866 4.53839 53.5917 3.95854 53.0118C3.37868 52.4321 2.88367 51.7675 2.51597 51.0321C2.14825 50.2968 1.87953 49.505 1.75225 48.6847C1.61082 47.808 1.52596 46.9171 1.51181 46.0262C1.51181 45.7292 1.49768 44.7394 1.49768 44.7394V12.074C1.49768 12.074 1.49767 11.0983 1.51181 10.8154C1.51181 9.92456 1.59667 9.04783 1.75225 8.17109C1.89367 7.35092 2.14825 6.55903 2.51597 5.82371C2.88367 5.08839 3.36453 4.42377 3.95854 3.84398C4.53839 3.26421 5.2031 2.76928 5.93854 2.40161C6.67397 2.03394 7.46597 1.76527 8.27211 1.63801C9.14897 1.49659 10.04 1.41175 10.931 1.41175H12.2038L157.551 1.39761H158.838C159.714 1.42589 160.591 1.49659 161.468 1.65214C162.288 1.79356 163.081 2.04809 163.83 2.42989C165.301 3.17936 166.489 4.38134 167.252 5.85199C167.62 6.58731 167.874 7.3792 168.016 8.18524C168.157 9.06197 168.243 9.95285 168.257 10.8579C168.257 11.2538 168.257 11.6922 168.257 12.1164C168.257 12.6538 168.257 13.1487 168.257 13.6578V43.2122C168.257 43.7213 168.257 44.2304 168.257 44.7394C168.257 45.2061 168.257 45.6162 168.257 46.0546C168.243 46.9313 168.157 47.808 168.016 48.6705C167.889 49.4908 167.62 50.2826 167.252 51.0321C166.884 51.7533 166.389 52.4179 165.809 52.9978C165.23 53.5775 164.566 54.0724 163.83 54.44C163.081 54.8218 162.288 55.0764 161.468 55.2178C160.591 55.3593 159.714 55.4442 158.824 55.4442C158.413 55.4442 157.975 55.4582 157.551 55.4582H156.022H12.2038V55.4724Z" fill="black"/>
<path d="M35.3035 28.8444C35.3318 26.4404 36.5905 24.2344 38.6412 22.9759C37.34 21.1234 35.2469 19.9922 32.9981 19.9215C30.6222 19.667 28.317 21.3355 27.1147 21.3355C25.9126 21.3355 24.0175 19.9355 22.0091 19.978C19.3644 20.0628 16.9743 21.5335 15.6872 23.8384C12.9577 28.5757 14.9943 35.533 17.6107 39.3651C18.9261 41.2459 20.4534 43.3387 22.4618 43.2539C24.4276 43.169 25.163 42.0096 27.5248 42.0096C29.8867 42.0096 30.5514 43.2539 32.6022 43.2115C34.7095 43.1832 36.0389 41.3308 37.2976 39.4359C38.2452 38.1066 38.9665 36.6219 39.4473 35.0664C36.9441 34.0058 35.3176 31.5594 35.3176 28.8444H35.3035Z" fill="white"/>
<path d="M31.4428 17.4059C32.5884 16.0342 33.1541 14.2524 33.0127 12.4707C31.2589 12.6546 29.6325 13.4888 28.4728 14.8181C27.3273 16.1191 26.7473 17.8301 26.8606 19.5695C28.6425 19.5837 30.3255 18.7917 31.4428 17.4059Z" fill="white"/>
<path d="M60.0963 38.519H53.4067L51.7944 43.2703H48.9658L55.3018 25.7074H58.2435L64.5795 43.2703H61.6944L60.0821 38.519H60.0963ZM54.0996 36.3271H59.4032L56.7867 28.6205H56.7161L54.0996 36.3271Z" fill="white"/>
<path d="M78.2829 36.8658C78.2829 40.8395 76.1474 43.399 72.9369 43.399C71.2823 43.4838 69.7124 42.6213 68.9062 41.1647H68.8496V47.4999H66.2191V30.4601H68.7647V32.5954H68.8072C69.6417 31.1529 71.2115 30.2762 72.8804 30.3328C76.1332 30.3328 78.2689 32.9064 78.2689 36.8658H78.2829ZM75.5816 36.8658C75.5816 34.2781 74.238 32.567 72.2015 32.567C70.1649 32.567 68.8355 34.3064 68.8355 36.8658C68.8355 39.4253 70.1932 41.1789 72.2015 41.1789C74.2098 41.1789 75.5816 39.4819 75.5816 36.8658Z" fill="white"/>
<path d="M92.3703 36.8658C92.3703 40.8395 90.2347 43.399 87.0243 43.399C85.3695 43.4838 83.7996 42.6213 82.9936 41.1647H82.937V47.4999H80.3063V30.4601H82.8521V32.5954H82.8945C83.7289 31.1529 85.2988 30.2762 86.9676 30.3328C90.2205 30.3328 92.3561 32.9064 92.3561 36.8658H92.3703ZM89.669 36.8658C89.669 34.2781 88.3254 32.567 86.2888 32.567C84.2523 32.567 82.9228 34.3064 82.9228 36.8658C82.9228 39.4253 84.2805 41.1789 86.2888 41.1789C88.2972 41.1789 89.669 39.4819 89.669 36.8658Z" fill="white"/>
<path d="M101.691 38.3782C101.89 40.1176 103.573 41.263 105.892 41.263C108.211 41.263 109.696 40.1176 109.696 38.5479C109.696 37.1905 108.735 36.3703 106.458 35.8046L104.181 35.2532C100.956 34.4754 99.457 32.9623 99.457 30.5159C99.457 27.4898 102.102 25.411 105.85 25.411C109.597 25.411 112.101 27.4898 112.186 30.5159H109.527C109.371 28.7625 107.914 27.7019 105.807 27.7019C103.7 27.7019 102.243 28.7765 102.243 30.3322C102.243 31.5765 103.162 32.2977 105.425 32.8633L107.363 33.3441C110.969 34.1926 112.468 35.6491 112.468 38.2085C112.468 41.4892 109.852 43.5538 105.694 43.5538C101.805 43.5538 99.1741 41.5458 99.0043 38.3642H101.691V38.3782Z" fill="white"/>
<path d="M118.153 27.4327V30.4589H120.585V32.5376H118.153V39.5939C118.153 40.6969 118.634 41.206 119.709 41.206C119.991 41.206 120.288 41.1776 120.571 41.1494V43.214C120.09 43.2988 119.595 43.3412 119.115 43.3412C116.526 43.3412 115.508 42.3655 115.508 39.8909V32.5517H113.641V30.4731H115.508V27.4469H118.153V27.4327Z" fill="white"/>
<path d="M122 36.8651C122 32.835 124.376 30.3038 128.068 30.3038C131.759 30.3038 134.135 32.835 134.135 36.8651C134.135 40.8953 131.787 43.4265 128.068 43.4265C124.348 43.4265 122 40.9094 122 36.8651ZM131.476 36.8651C131.476 34.1077 130.203 32.4674 128.082 32.4674C125.96 32.4674 124.687 34.1077 124.687 36.8651C124.687 39.6227 125.946 41.263 128.082 41.263C130.217 41.263 131.476 39.6509 131.476 36.8651Z" fill="white"/>
<path d="M136.312 30.4597H138.815V32.6375H138.872C139.225 31.2376 140.513 30.276 141.954 30.3184C142.252 30.3184 142.563 30.3467 142.861 30.4173V32.8779C142.478 32.7648 142.082 32.7082 141.686 32.7224C140.229 32.6658 138.985 33.797 138.928 35.2677C138.928 35.4091 138.928 35.5364 138.943 35.6777V43.2715H136.312V30.4739V30.4597Z" fill="white"/>
<path d="M154.966 39.5095C154.612 41.8286 152.35 43.4265 149.45 43.4265C145.731 43.4265 143.411 40.9377 143.411 36.9217C143.411 32.9057 145.731 30.3038 149.336 30.3038C152.943 30.3038 155.108 32.736 155.108 36.6248V37.5297H146.069V37.6854C145.914 39.5236 147.258 41.1358 149.096 41.3054C149.238 41.3054 149.38 41.3195 149.506 41.3054C150.779 41.4185 151.982 40.6973 152.462 39.5095H154.952H154.966ZM146.084 35.6915H152.49C152.59 33.9945 151.289 32.538 149.592 32.4532C149.506 32.4532 149.436 32.4532 149.351 32.4532C147.555 32.4532 146.098 33.8814 146.084 35.6773C146.084 35.6773 146.084 35.6915 146.084 35.7056V35.6915Z" fill="white"/>
<path d="M53.7707 12.4891C55.8214 12.3477 57.6175 13.889 57.759 15.9394C57.7732 16.1798 57.759 16.4343 57.7448 16.6748C57.7448 19.3756 56.2881 20.9171 53.7707 20.9171H50.7158V12.4749H53.7707V12.4891ZM52.0311 19.7292H53.6151C55.0719 19.8141 56.3306 18.697 56.4154 17.2404C56.4154 17.0566 56.4154 16.8728 56.387 16.6889C56.5851 15.2324 55.5668 13.889 54.1102 13.6911C53.9404 13.6627 53.7707 13.6627 53.601 13.6769H52.0169V19.7292H52.0311Z" fill="white"/>
<path d="M59.2152 17.734C59.0597 16.0795 60.276 14.6088 61.9306 14.4391C63.5854 14.2836 65.0562 15.4997 65.2259 17.1543C65.2401 17.3522 65.2401 17.5361 65.2259 17.734C65.3815 19.3885 64.1794 20.8732 62.5106 21.0289C60.8558 21.1844 59.3708 19.9823 59.2152 18.3138C59.2011 18.1158 59.2011 17.9179 59.2152 17.734ZM63.9248 17.734C63.9248 16.3482 63.3025 15.5422 62.2136 15.5422C61.1246 15.5422 60.5022 16.3482 60.5022 17.734C60.5022 19.1198 61.1104 19.9259 62.2136 19.9259C63.3025 19.9259 63.9248 19.1198 63.9248 17.734Z" fill="white"/>
<path d="M73.2034 20.9296H71.9023L70.587 16.2347H70.4879L69.1726 20.9296H67.8857L66.132 14.5661H67.4047L68.5503 19.4305H68.6494L69.9647 14.5661H71.1668L72.4821 19.4305H72.5812L73.7126 14.5661H74.9713L73.2175 20.9296H73.2034Z" fill="white"/>
<path d="M76.4262 14.5521H77.6425V15.5703H77.7416C78.0668 14.8208 78.8305 14.3684 79.6367 14.439C80.7823 14.3542 81.7722 15.2027 81.8571 16.3481C81.8571 16.5036 81.8571 16.6591 81.8431 16.8006V20.9155H80.5842V17.1117C80.5842 16.0936 80.1459 15.5845 79.2124 15.5845C78.4062 15.542 77.7274 16.1642 77.6849 16.9703C77.6849 17.0409 77.6849 17.1258 77.6849 17.1966V20.9155H76.4262V14.5521Z" fill="white"/>
<path d="M83.8387 12.0778H85.0974V20.93H83.8387V12.0778Z" fill="white"/>
<path d="M86.8506 17.734C86.6951 16.0795 87.9114 14.6088 89.5661 14.4391C91.2207 14.2836 92.6916 15.4997 92.8613 17.1543C92.8755 17.3522 92.8755 17.5361 92.8613 17.734C93.017 19.3885 91.8148 20.8732 90.146 21.0289C88.4771 21.1844 87.0061 19.9823 86.8506 18.3138C86.8366 18.1158 86.8366 17.9179 86.8506 17.734ZM91.5602 17.734C91.5602 16.3482 90.9379 15.5422 89.8489 15.5422C88.76 15.5422 88.1377 16.3482 88.1377 17.734C88.1377 19.1198 88.7458 19.9259 89.8489 19.9259C90.9379 19.9259 91.5602 19.1198 91.5602 17.734Z" fill="white"/>
<path d="M94.1769 19.1197C94.1769 17.9742 95.0255 17.3097 96.5388 17.2248L98.2642 17.1258V16.5743C98.2642 15.8955 97.8257 15.5279 96.9631 15.5279C96.256 15.5279 95.7751 15.7824 95.6336 16.2349H94.4173C94.5446 15.146 95.5771 14.439 97.0196 14.439C98.6177 14.439 99.5229 15.2309 99.5229 16.5743V20.9297H98.3067V20.0388H98.2076C97.7975 20.6892 97.062 21.071 96.2984 21.0428C95.2377 21.1559 94.29 20.3782 94.1911 19.3318C94.1911 19.2752 94.1911 19.2045 94.1911 19.1337L94.1769 19.1197ZM98.2642 18.5822V18.0449L96.7085 18.1439C95.8317 18.2004 95.4356 18.4974 95.4356 19.0631C95.4356 19.6286 95.9306 19.968 96.6095 19.968C97.4298 20.0529 98.1652 19.4449 98.25 18.6247C98.25 18.6106 98.25 18.5964 98.25 18.5682L98.2642 18.5822Z" fill="white"/>
<path d="M101.176 17.7342C101.176 15.7262 102.209 14.4535 103.821 14.4535C104.627 14.4111 105.391 14.8493 105.773 15.5705H105.872V12.0778H107.13V20.93H105.928V19.926H105.829C105.419 20.633 104.656 21.0715 103.835 21.0431C102.209 21.0431 101.19 19.7705 101.19 17.7483L101.176 17.7342ZM102.477 17.7342C102.477 19.0917 103.114 19.8976 104.175 19.8976C105.235 19.8976 105.886 19.0775 105.886 17.7342C105.886 16.3908 105.221 15.5705 104.175 15.5705C103.128 15.5705 102.477 16.3908 102.477 17.7342Z" fill="white"/>
<path d="M112.323 17.735C112.168 16.0806 113.384 14.61 115.038 14.4403C116.693 14.2706 118.164 15.5007 118.334 17.1553C118.348 17.3532 118.348 17.5371 118.334 17.735C118.489 19.3895 117.287 20.8744 115.618 21.0299C113.964 21.1854 112.479 19.9835 112.323 18.3149C112.309 18.1168 112.309 17.9189 112.323 17.735ZM117.033 17.735C117.033 16.3492 116.41 15.5432 115.321 15.5432C114.232 15.5432 113.61 16.3492 113.61 17.735C113.61 19.1208 114.218 19.9269 115.321 19.9269C116.41 19.9269 117.033 19.1208 117.033 17.735Z" fill="white"/>
<path d="M120.015 14.5521H121.231V15.5703H121.33C121.656 14.8208 122.419 14.3684 123.225 14.439C124.371 14.3542 125.361 15.2027 125.446 16.3481C125.446 16.5036 125.446 16.6591 125.432 16.8006V20.9155H124.173V17.1117C124.173 16.0936 123.735 15.5845 122.801 15.5845C121.995 15.542 121.316 16.1642 121.274 16.9703C121.274 17.0409 121.274 17.1258 121.274 17.1966V20.9155H120.015V14.5521Z" fill="white"/>
<path d="M132.533 12.968V14.58H133.919V15.6406H132.533V18.9213C132.533 19.5859 132.801 19.8829 133.438 19.8829C133.593 19.8829 133.763 19.8829 133.919 19.8546V20.901C133.692 20.9435 133.466 20.9577 133.24 20.9717C131.84 20.9717 131.288 20.4768 131.288 19.2465V15.6548H130.284V14.5942H131.288V12.9822H132.547L132.533 12.968Z" fill="white"/>
<path d="M135.616 12.0778H136.86V15.5847H136.959C137.299 14.8353 138.077 14.3828 138.897 14.4393C140.056 14.3828 141.047 15.2595 141.103 16.419C141.103 16.5463 141.103 16.6878 141.089 16.815V20.93H139.83V17.126C139.83 16.108 139.363 15.5989 138.472 15.5989C137.652 15.5281 136.931 16.1362 136.874 16.9563C136.874 17.0412 136.874 17.126 136.874 17.2109V20.93H135.616V12.0778Z" fill="white"/>
<path d="M148.428 19.2045C148.074 20.4065 146.915 21.1841 145.671 21.0428C144.072 21.0852 142.743 19.8267 142.7 18.2288C142.7 18.0731 142.7 17.9176 142.729 17.7621C142.516 16.15 143.647 14.6794 145.246 14.4673C145.387 14.4531 145.529 14.439 145.656 14.439C147.424 14.439 148.499 15.6551 148.499 17.649V18.0873H144.001V18.158C143.917 19.0913 144.61 19.8974 145.543 19.9822C145.599 19.9822 145.656 19.9822 145.699 19.9822C146.307 20.0529 146.915 19.7559 147.212 19.2045H148.428ZM144.001 17.154H147.212C147.268 16.3055 146.646 15.5703 145.797 15.5137C145.741 15.5137 145.699 15.5137 145.642 15.5137C144.736 15.5137 144.001 16.2207 143.987 17.1258C143.987 17.1258 143.987 17.154 143.987 17.1682L144.001 17.154Z" fill="white"/>
</g>
</svg>
