<svg width="23" height="31" viewBox="0 0 23 31" fill="none" xmlns="http://www.w3.org/2000/svg">
<path d="M8.35351 12.3013C8.82332 12.6586 10.5854 12.8571 11.2369 12.8372C11.3955 12.8324 11.4968 12.7671 11.5603 12.6719C11.6241 12.7671 11.7253 12.8324 11.8837 12.8372C12.5354 12.8571 14.2973 12.6586 14.7674 12.3013C15.2373 11.944 14.8456 11.2492 14.924 10.8919C15.0022 10.5344 15.9616 9.34336 16.8231 9.30368C17.6845 9.26401 19.2312 9.89927 19.662 11.3484C20.0926 12.7977 19.9751 14.2865 18.8788 14.9018C17.7824 15.5172 16.7448 15.1797 16.5489 14.9018C16.3532 14.624 15.5309 14.6438 15.2176 15.0607C14.9044 15.4775 13.8079 16.2121 13.8079 16.6488C13.8079 16.671 13.8082 16.6935 13.8084 16.716C13.5817 16.6071 13.3084 16.5618 13.1742 16.8688C12.9223 17.4457 12.4496 19.1018 12.5756 19.6591C12.7015 20.2164 13.5085 20.0461 13.6855 20.3356C14.8699 22.2727 13.6651 23.8432 12.4437 24.2922C12.4288 23.9921 12.31 21.5592 12.3278 21.122C12.347 20.653 12.4464 16.9528 12.4475 16.9155C12.4494 16.8463 12.4737 16.782 12.5177 16.7299C13.3999 15.6837 13.9776 15.0034 14.0169 14.9613C14.0597 14.9321 14.25 14.8828 14.3759 14.8503C14.4962 14.819 14.6205 14.7867 14.7112 14.7533C14.8369 14.7069 15.2401 14.405 16.1562 13.7008C16.5756 13.3783 17.0093 13.0448 17.1269 12.9735C17.4299 12.789 18.7243 12.0793 18.8369 12.0358L18.7888 11.8849L18.7515 11.7306C18.6273 11.7615 17.1491 12.5896 16.9657 12.7012C16.8336 12.7815 16.432 13.0902 15.967 13.4477C15.471 13.8291 14.7212 14.4054 14.6042 14.4549C14.528 14.483 14.4113 14.5132 14.2984 14.5423C14.032 14.6115 13.8776 14.6542 13.803 14.7301C13.7413 14.7925 12.9406 15.7398 12.2797 16.5233C12.1898 16.6299 12.1383 16.7658 12.1343 16.9067C12.1334 16.944 12.034 20.6422 12.0148 21.1087C11.9951 21.587 12.1267 24.2272 12.1322 24.3394L12.3339 24.329C12.0778 24.4089 11.8243 24.4395 11.595 24.4117C11.3783 24.3853 11.1665 24.3445 10.9619 24.2921H10.9769C10.9805 23.1473 11.0021 20.1041 11.0593 19.773C11.1212 19.4137 11.0842 17.7125 11.0653 16.9977C11.062 16.8744 11.023 16.7559 10.9522 16.655C10.1131 15.4628 9.58321 14.8224 9.37729 14.7514C9.3093 14.728 9.23983 14.7068 9.16704 14.6844C8.93329 14.6128 8.66861 14.5317 8.29059 14.3252C8.08863 14.215 7.43587 13.7651 6.74484 13.2891C5.386 12.3527 4.54576 11.7806 4.33691 11.7304L4.26404 12.0393C4.44728 12.09 5.724 12.9695 6.56877 13.5517C7.29706 14.0535 7.92584 14.4868 8.14233 14.605C8.54793 14.8265 8.84077 14.9163 9.07635 14.9884C9.14571 15.0096 9.21165 15.03 9.27394 15.0512C9.39132 15.1052 9.88666 15.6878 10.6971 16.8392C10.7315 16.8884 10.7507 16.9461 10.7521 17.0061C10.7821 18.1401 10.7975 19.4478 10.7507 19.7182C10.6821 20.1147 10.6662 23.597 10.664 24.2051C9.73288 23.8934 9.02296 23.284 8.93694 22.3578C8.824 21.1404 9.47837 20.3379 9.7792 20.2681C10.08 20.1981 10.3608 19.4531 10.1289 19.0135C9.89716 18.574 9.68554 17.3112 9.32402 17.1452C9.30485 17.1363 9.28546 17.1275 9.26595 17.1189C9.30713 16.9737 9.31284 16.8087 9.31284 16.6488C9.31284 16.2121 8.21639 15.4775 7.90325 15.0607C7.58997 14.6438 6.76766 14.624 6.57181 14.9018C6.37609 15.1797 5.33845 15.5172 4.24207 14.9018C3.14561 14.2865 3.02819 12.7977 3.45889 11.3484C3.88959 9.89927 5.43635 9.26401 6.29774 9.30368C7.15928 9.34336 8.11858 10.5344 8.19692 10.8919C8.27521 11.2492 7.88359 11.944 8.35351 12.3013Z" fill="white"/>
<path d="M19.5152 17.971C20.5774 17.6493 20.3305 16.4502 20.2183 16.0588L19.2295 17.0764C19.3595 17.0955 19.4506 17.1254 19.474 17.165C19.5144 17.233 19.5269 17.5537 19.5152 17.971Z" fill="#00A650"/>
<path d="M20.492 19.309C20.9441 18.5068 21.0697 17.408 21.0786 15.4172L20.8048 15.5567C20.8684 16.3416 20.7957 16.958 20.5704 17.694C20.4245 18.1702 19.8766 18.4631 19.4817 18.6168C19.4321 19.2989 19.3351 20.0279 19.1999 20.3412C18.9258 20.9765 20.0222 20.1428 20.492 19.309Z" fill="#00A650"/>
<path d="M22.4499 13.9093C22.4109 13.3534 22.1226 12.591 21.9339 13.2104C21.822 13.5774 21.6532 14.2616 21.5419 15.181C21.4654 15.8135 21.4158 16.5562 21.4319 17.3877C21.4709 19.428 21.0977 19.8166 19.8942 20.8332C18.6908 21.8499 18.3777 22.1279 18.3777 22.1279C18.3777 22.1279 19.1226 19.1349 19.0438 18.408C19.0024 18.0256 18.8968 17.72 18.735 17.5852C18.5893 17.464 18.398 17.481 18.1648 17.7112C17.6728 18.1971 17.2921 21.2941 16.8559 22.1675C16.4198 23.041 15.9852 23.9726 15.9852 23.9726C15.9852 23.9726 15.1199 25.9096 15.9852 26.4208C16.8505 26.9318 17.0252 26.9716 18.8369 24.8277C20.6487 22.6837 22.3325 21.3338 22.4499 19.4678C22.5675 17.6017 22.4891 14.4652 22.4499 13.9093Z" fill="#00A650"/>
<path d="M3.48482 17.9709C3.47306 17.5536 3.48562 17.233 3.52596 17.1649C3.54934 17.1254 3.64048 17.0954 3.77046 17.0763L2.78163 16.0588C2.66946 16.4501 2.42258 17.6493 3.48482 17.9709Z" fill="white"/>
<path d="M3.80001 20.3412C3.66485 20.0278 3.56785 19.2989 3.51829 18.6168C3.12341 18.463 2.57543 18.1701 2.42958 17.6939C2.20422 16.9579 2.13159 16.3415 2.19508 15.5567L1.92134 15.0077C1.9303 16.9986 2.05583 18.5068 2.50792 19.3089C2.97774 20.1427 4.07416 20.9765 3.80001 20.3412Z" fill="white"/>
<path d="M7.01476 26.4208C7.88008 25.9096 7.01476 23.9726 7.01476 23.9726C7.01476 23.9726 6.58013 23.041 6.14401 22.1675C5.70782 21.2941 5.32717 18.1971 4.8352 17.7112C4.60205 17.481 4.41074 17.464 4.26502 17.5852C4.10312 17.72 3.99764 18.0256 3.9562 18.408C3.87732 19.1349 4.62228 22.1279 4.62228 22.1279C4.62228 22.1279 4.30914 21.8499 3.10573 20.8332C1.90231 19.8166 1.52901 19.428 1.5681 17.3877C1.58414 16.5562 1.53453 15.8135 1.45802 15.181C1.3467 14.2616 1.17794 13.5774 1.0661 13.2104C0.877375 12.591 0.589186 13.3534 0.550056 13.9093C0.510847 14.4652 0.432542 17.6017 0.550056 19.4678C0.667479 21.3338 2.35128 22.6837 4.16297 24.8277C5.9748 26.9716 6.14944 26.9318 7.01476 26.4208Z" fill="#00A650"/>
<path d="M5.71696 6.74944C5.71696 6.74944 5.84744 6.72307 6.00407 6.55107C6.16072 6.37906 7.32237 4.34081 7.53123 3.90415C7.74001 3.46749 7.988 3.54684 7.988 3.54684L8.04027 3.73203C8.09241 4.354 7.41373 5.29383 7.07439 5.62465C6.735 5.95547 7.07439 6.20694 7.07439 6.20694C7.07439 6.20694 7.24403 6.11417 7.68774 5.53188C8.13158 4.94959 8.28827 3.90415 8.28827 3.90415L8.45792 3.69236H8.7195C8.73125 3.72208 8.74779 3.76049 8.77118 3.8115C8.94082 4.18199 8.51005 5.06873 8.27521 5.46583C8.04027 5.86282 8.27521 5.87612 8.27521 5.87612C9.13829 5.25392 9.09745 3.5997 9.01919 3.44089C8.94082 3.28207 8.60154 3.37472 8.44485 3.30867C8.28827 3.24239 8.44485 2.92476 8.44485 2.92476C8.44485 2.92476 9.09745 2.75276 9.07133 2.84529C9.0452 2.93795 9.17582 3.13655 9.42167 3.25558C9.66762 3.37472 10.0895 3.26888 10.0895 3.26888L10.1286 3.50705L10.2591 3.5997C10.2853 5.25404 10.7942 5.38637 11.3032 5.87612C11.8123 6.36564 12.4387 6.4716 12.4387 6.4716C12.2561 6.94793 12.465 7.75532 12.465 7.75532C12.465 7.75532 12.7913 7.90095 13.0523 7.66267C13.3134 7.4245 13.1959 6.4716 13.1959 6.41862C13.1959 6.36564 12.987 6.76274 12.987 6.76274L12.843 6.41862C12.6992 6.07461 12.5564 5.50551 12.5564 5.50551C12.5564 5.50551 12.3997 5.09522 12.713 5.41286C13.0261 5.73049 13.0523 5.74368 13.1436 5.54518C13.235 5.34669 13.0654 4.72473 13.0654 4.72473C13.0654 4.72473 13.0523 4.64526 13.1567 4.68493C13.2612 4.72473 13.496 4.92611 13.496 4.92611C13.496 4.92611 13.5483 4.61877 13.6397 4.67163C13.731 4.72473 13.7441 4.83057 13.8484 5.12159C13.9529 5.41286 14.1357 5.26723 14.1357 5.26723C14.1357 5.26723 14.0964 5.06873 14.1487 4.73791C14.2009 4.40709 14.4227 4.65845 14.4227 4.65845C14.488 5.34669 15.0624 5.95547 15.0624 5.95547C15.3234 5.5187 14.6707 4.1953 14.6707 4.1953C14.6707 4.1953 14.5141 4.12913 14.1617 4.12913C13.8093 4.12913 13.0654 4.26146 13.0654 4.26146C13.0654 4.26146 12.8565 4.23497 12.5171 3.8115C12.1777 3.38802 12.3344 3.18942 12.3344 3.18942C12.3344 3.18942 12.478 3.17623 12.6215 3.21602C12.7651 3.25558 12.974 3.67917 13.2612 3.86436C13.5483 4.04978 13.9267 3.77171 14.1879 3.48068C14.449 3.18942 14.449 2.51447 14.449 2.51447C14.4332 2.25618 14.4174 1.99777 14.4017 1.73936C14.3915 1.57071 14.5201 1.42462 14.6868 1.42126C14.8535 1.41802 15.0416 1.42808 15.245 1.46244C15.8761 1.56897 16.3306 1.85445 16.5764 2.03814C16.474 1.87354 15.63 1.03341 14.736 0.674948C14.408 0.54343 14.1468 0.75557 13.9865 0.954525C13.8708 1.09796 13.8265 1.28789 13.8624 1.46961C14.0072 2.20332 13.9509 2.77554 13.8093 2.99092C13.6527 3.22921 13.0523 3.14974 13.0523 3.14974C12.6607 2.8586 12.5041 1.56169 12.5041 1.05875C12.5041 0.555922 12.2078 0.159862 11.5382 0.185309C10.8687 0.210757 10.6508 0.714739 10.6508 0.714739C10.6508 0.714739 10.9118 0.820578 11.2249 1.24405C11.5382 1.66753 11.3554 2.99092 11.3554 2.99092L11.1988 2.93795C11.1988 2.93795 11.0944 3.14974 10.6508 3.14974C10.2069 3.14974 9.6326 2.67329 9.6326 1.95879C9.6326 1.24405 9.46023 0.720291 9.42383 0.714739C8.6667 0.595481 8.05329 1.40287 7.58338 1.5485C7.11346 1.69402 7.06132 1.95879 7.06132 1.95879C7.66172 2.10419 8.09241 1.69401 8.56228 1.37638C9.0322 1.05875 9.08433 1.25724 9.08433 1.25724C9.1627 1.81316 8.95394 2.14398 8.95394 2.14398C8.57534 2.07781 8.67984 1.81316 8.67984 1.81316C8.67984 1.81316 8.35351 1.86602 7.93573 2.23663C7.51809 2.60713 6.90469 2.63373 6.90469 2.63373C6.9177 3.0439 7.36154 2.92476 7.36154 2.92476L7.23102 3.18942C6.96997 3.13655 6.87861 3.33505 6.87861 3.33505C6.98303 3.5997 7.36154 3.50705 7.36154 3.50705L7.32237 3.66598C6.89167 3.93052 5.97801 5.78335 5.71696 6.23343C5.45587 6.68328 5.71696 6.74944 5.71696 6.74944Z" fill="#00A650"/>
<path d="M9.71086 5.0357C9.82186 5.33343 9.97188 5.26727 9.97188 5.26727C9.97188 5.26727 10.1025 4.6453 9.97188 4.24832C9.84149 3.85122 9.80224 3.79836 9.80224 3.79836C9.80224 3.79836 9.52822 3.67921 9.41072 3.93057C9.29321 4.18204 8.99296 5.14824 9.01919 5.35992L9.0452 5.57172C9.0452 5.57172 9.46719 5.45084 9.52377 4.67087C9.58036 3.89089 9.71086 4.39395 9.71086 4.39395C9.71086 4.39395 9.62222 4.79753 9.71086 5.0357Z" fill="#00A650"/>
<path d="M15.232 3.52038C15.4409 3.38805 15.5779 3.61292 15.5779 3.61292C15.6497 3.46752 15.4669 3.25561 15.4669 3.25561C15.4669 3.25561 15.6105 3.09691 15.8455 3.3087C16.0804 3.52038 16.2645 3.50708 16.2645 3.50708C16.1354 3.38805 16.0152 2.81895 16.0152 2.81895C16.1543 2.77927 16.2936 2.7396 16.4328 2.69981C16.1265 2.14597 15.8074 1.95789 15.5652 1.89184C15.2571 1.80798 14.723 1.82637 14.723 1.82637C14.7123 1.93707 14.7029 2.10005 14.7164 2.29623C14.7332 2.53925 14.7751 2.68893 14.8012 2.83214C14.8383 3.03421 14.863 3.32582 14.8012 3.70569C14.8012 3.70569 15.0232 3.65271 15.232 3.52038Z" fill="#00A650"/>
<path d="M16.1587 6.32599C16.1587 6.32599 16.3936 6.23345 16.0673 5.66435C15.741 5.09524 15.5958 4.76442 15.5249 4.34083C15.4539 3.91736 15.0885 4.07618 15.0885 4.07618C15.0885 4.07618 15.2059 5.70391 16.1587 6.32599Z" fill="#00A650"/>
<path d="M16.0673 4.10265C16.0673 4.10265 15.989 5.38638 16.7852 6.03483C17.5815 6.68329 17.6467 6.74945 17.6467 6.74945C17.6467 6.74945 17.6205 6.41863 17.1507 5.63785C16.6808 4.85695 16.4198 4.27466 16.0673 4.10265Z" fill="#00A650"/>
<path d="M11.6557 7.68908C11.8123 7.66271 11.8123 6.69662 11.8123 6.69662C11.8123 6.69662 11.5121 6.7363 11.3164 6.49813C11.1206 6.25984 10.8725 6.24666 10.8204 6.41866C10.7682 6.59066 10.2461 7.55687 10.99 7.99353C10.99 7.99353 11.2511 7.80834 11.4861 7.99353C11.4861 7.99353 11.4991 7.71569 11.6557 7.68908Z" fill="#00A650"/>
<path d="M13.8354 7.21276C13.7311 7.46423 13.9399 7.72888 13.9399 7.72888H14.1879C14.1879 7.72888 14.1879 7.53027 14.4227 7.57006C14.6577 7.60974 14.8666 7.51709 14.8666 7.51709C14.8666 7.51709 14.8012 7.49072 14.6169 7.27892C14.4325 7.06724 14.1569 6.98477 14.1879 7.02745C14.3313 7.22606 14.227 7.37817 14.227 7.37817L13.8354 7.21276Z" fill="#00A650"/>
<path d="M12.961 9.54201C12.9734 9.53773 12.9657 9.5279 12.9446 9.51668C12.9465 9.53773 12.9502 9.5456 12.961 9.54201Z" fill="#00A650"/>
<path d="M12.5564 8.35081C12.5564 8.35081 12.465 8.28465 12.4519 8.73461C12.4387 9.18457 12.2953 9.38318 12.2953 9.38318C12.2953 9.38318 12.4387 9.46264 12.6477 9.46264C12.7898 9.46264 12.8999 9.49295 12.9446 9.51666C12.9398 9.46183 12.9488 9.30834 12.8826 8.97289C12.7913 8.50963 12.5564 8.35081 12.5564 8.35081Z" fill="#00A650"/>
<path d="M11.6557 9.11842C11.6557 9.11842 11.9298 9.14502 12.0342 8.94526C12.1387 8.74538 12.0342 8.34747 12.0342 8.34747C12.0342 8.34747 11.9167 8.43029 11.6557 8.50964C11.3947 8.5891 11.5382 9.11969 11.5382 9.11969L11.6557 9.11842Z" fill="#00A650"/>
<path d="M10.8595 8.94528C10.7289 9.26407 10.5938 9.36991 10.5938 9.36991C10.5938 9.36991 10.8595 9.54203 11.0944 9.36991C11.3294 9.19779 11.203 9.03759 11.203 9.03759V8.62892C11.1728 8.62892 10.99 8.62638 10.8595 8.94528Z" fill="#00A650"/>
<path d="M3.49797 28.2023C3.49752 28.2027 4.58588 27.4706 5.49259 27.1564C5.19705 26.7681 4.61975 26.5029 3.95486 26.5029C2.99053 26.5029 2.20592 27.0592 2.20592 27.7431C2.20592 28.0607 2.70511 28.6194 3.49797 28.2023Z" fill="#00A650"/>
<path d="M19.5465 28.6194C18.1692 27.7912 15.9724 26.8051 12.743 26.6379L12.7382 26.665C12.3884 26.6396 12.0335 26.621 11.6701 26.6147C11.6319 26.6149 11.595 26.614 11.5566 26.6144C11.5181 26.614 11.4813 26.6149 11.4431 26.6147C11.0796 26.621 10.7247 26.6396 10.3749 26.665L10.3702 26.6379C7.14078 26.8051 4.94394 27.7912 3.56659 28.6194C2.98897 28.9666 2.70421 28.7177 2.70511 28.7185L3.97982 30.293C4.2943 30.6105 4.78708 30.6523 5.15048 30.3939C6.63339 29.3394 8.87648 28.6655 11.384 28.6655C11.442 28.6655 11.4987 28.6689 11.5566 28.6697C11.6143 28.6689 11.6711 28.6655 11.7292 28.6655C14.2367 28.6655 16.4797 29.3394 17.9626 30.3939C18.3261 30.6523 18.8188 30.6105 19.1333 30.293L20.4081 28.7185C20.409 28.7177 20.1242 28.9666 19.5465 28.6194Z" fill="#00A650"/>
<path d="M19.1582 26.5029C18.4934 26.5029 17.9161 26.7681 17.6205 27.1564C18.5273 27.4706 19.6157 28.2027 19.6151 28.2023C20.4081 28.6194 20.9073 28.0607 20.9073 27.7431C20.9073 27.0592 20.1226 26.5029 19.1582 26.5029Z" fill="#00A650"/>
<path d="M11.7897 0.615357C11.7897 0.677473 11.6984 0.727905 11.5857 0.727905C11.4729 0.727905 11.3816 0.677473 11.3816 0.615357C11.3816 0.553241 11.4729 0.502925 11.5857 0.502925C11.6984 0.502925 11.7897 0.553241 11.7897 0.615357Z" fill="black"/>
<path d="M12.2652 24.5325L10.8555 24.3394L10.9153 16.9267C10.3896 16.0533 9.44175 14.7052 8.43185 14.5048C7.53123 14.3262 4.86876 12.1714 4.53744 11.9233L5.28988 10.89C6.49908 11.7954 7.19457 12.6587 9.22363 13.4623C9.85346 13.7117 10.8678 14.6856 11.518 15.3015C12.4845 14.5048 12.7666 14.0066 13.356 13.8894C13.7838 13.7464 16.3556 12.2164 18.0699 11.0109L18.7793 11.9358C16.9692 12.6715 14.7008 14.4939 14.0236 14.8861C13.7623 15.0029 12.9896 16.0141 12.2928 16.8283L12.2652 24.5325Z" fill="#00ADEF"/>
<path d="M19.2782 17.3876C19.2782 17.3876 19.7057 17.4107 19.9423 16.6724C20.1788 15.9341 19.0563 17.0302 19.0563 17.0302L19.2782 17.3876Z" fill="#231F20"/>
<path d="M22.4499 19.4678C22.3325 21.3338 20.6487 22.6837 18.8369 24.8276C17.0252 26.9716 16.8505 26.9318 15.9852 26.4208C15.1199 25.9096 15.9852 23.9726 15.9852 23.9726C15.9852 23.9726 16.4198 23.041 16.8559 22.1675C17.2921 21.2941 17.6728 18.1971 18.1648 17.7112C18.398 17.481 18.5893 17.464 18.735 17.5852C18.8968 17.72 19.0024 18.0256 19.0438 18.408C19.1226 19.1349 18.3777 22.1278 18.3777 22.1278C18.3777 22.1278 18.6908 21.8499 19.8942 20.8331C21.0977 19.8166 21.4709 19.428 21.4319 17.3876C21.4158 16.5562 21.4654 15.8135 21.5419 15.181C21.6532 14.2616 21.822 13.5774 21.9339 13.2104C22.1226 12.591 22.4109 13.3534 22.4499 13.9093C22.4891 14.4652 22.5675 17.6016 22.4499 19.4678ZM20.9073 27.743C20.9073 28.0607 20.4081 28.6194 19.6151 28.2022C19.6157 28.2027 18.5273 27.4705 17.6205 27.1563C17.9161 26.768 18.4934 26.5029 19.1582 26.5029C20.1226 26.5029 20.9073 27.0592 20.9073 27.743ZM19.1333 30.293C18.8188 30.6105 18.3261 30.6523 17.9626 30.3939C16.4797 29.3394 14.2367 28.6655 11.7292 28.6655C11.6711 28.6655 11.6143 28.6688 11.5566 28.6697C11.4987 28.6688 11.442 28.6655 11.384 28.6655C8.87648 28.6655 6.63339 29.3394 5.15048 30.3939C4.78708 30.6523 4.2943 30.6105 3.97982 30.293L2.70511 28.7185C2.70421 28.7177 2.98897 28.9666 3.56659 28.6194C4.94394 27.7911 7.14078 26.805 10.3702 26.6379L10.3749 26.665C10.7247 26.6395 11.0796 26.621 11.4431 26.6146C11.4813 26.6149 11.5181 26.614 11.5566 26.6144C11.595 26.614 11.6319 26.6149 11.6701 26.6146C12.0335 26.621 12.3884 26.6395 12.7382 26.665L12.743 26.6379C15.9724 26.805 18.1692 27.7911 19.5465 28.6194C20.1242 28.9666 20.409 28.7177 20.4081 28.7185L19.1333 30.293ZM2.20592 27.743C2.20592 27.0592 2.99053 26.5029 3.95486 26.5029C4.61975 26.5029 5.19705 26.768 5.49259 27.1563C4.58588 27.4705 3.49751 28.2027 3.49797 28.2022C2.70511 28.6194 2.20592 28.0607 2.20592 27.743ZM0.550057 19.4678C0.432543 17.6016 0.510848 14.4652 0.550057 13.9093C0.589187 13.3534 0.877376 12.591 1.0661 13.2104C1.17794 13.5774 1.3467 14.2616 1.45802 15.181C1.53454 15.8135 1.58414 16.5562 1.5681 17.3876C1.52901 19.428 1.90231 19.8166 3.10573 20.8331C4.30914 21.8499 4.62228 22.1278 4.62228 22.1278C4.62228 22.1278 3.87732 19.1349 3.9562 18.408C3.99764 18.0256 4.10312 17.72 4.26502 17.5852C4.41074 17.464 4.60205 17.481 4.8352 17.7112C5.32717 18.1971 5.70782 21.2941 6.14401 22.1675C6.58014 23.041 7.01476 23.9726 7.01476 23.9726C7.01476 23.9726 7.88008 25.9096 7.01476 26.4208C6.14944 26.9318 5.9748 26.9716 4.16297 24.8276C2.35128 22.6837 0.66748 21.3338 0.550057 19.4678ZM3.48482 17.971C2.56251 17.6916 2.62721 16.7512 2.73371 16.2521C2.80382 16.3265 2.87556 16.3993 2.9499 16.4701C3.22582 16.7327 3.5042 16.927 3.77787 17.0754L3.77046 17.0764C3.64048 17.0955 3.54934 17.1254 3.52596 17.165C3.48562 17.233 3.47306 17.5536 3.48482 17.971ZM2.42958 17.6939C2.57543 18.1702 3.12341 18.463 3.51829 18.6168C3.56785 19.2989 3.66485 20.0278 3.80001 20.3412C4.07416 20.9765 2.97774 20.1427 2.50791 19.3089C2.05583 18.5068 1.9303 17.408 1.92134 15.4172C1.92103 15.3385 1.92058 15.2612 1.92058 15.1797L1.92014 15.1493C2.00436 15.2975 2.09616 15.4416 2.19353 15.5824C2.13381 16.3548 2.20667 16.9662 2.42958 17.6939ZM2.10797 10.0183C2.81286 9.08542 3.76846 7.77521 5.60087 7.5965C7.43328 7.4179 8.39263 8.1811 9.21496 9.11966C10.0372 10.0581 11.3294 11.2492 11.3882 11.6264C11.4095 11.7639 11.4552 11.9357 11.4757 12.0966C11.4656 12.1855 11.4614 12.2836 11.47 12.3793C11.4344 12.521 11.3303 12.6151 11.0887 12.5991C10.4875 12.5594 8.99957 12.2617 8.74506 12.1227C8.49054 11.9837 8.37302 11.4477 8.39263 11.0904C8.41224 10.7331 8.17726 9.94625 7.35499 9.44632C6.53268 8.94639 5.88184 8.79497 5.29919 9.11966C5.20965 9.16963 3.55684 9.78015 3.18482 11.4279C2.81286 13.0755 2.84971 14.3622 4.24207 15.2592C5.6343 16.1562 7.23743 15.0209 7.23743 15.0209L7.62906 15.2393C7.62906 15.2393 8.96033 16.3312 8.92131 16.6289C8.90124 16.7814 8.9115 16.9077 8.85036 17.0028C8.71414 16.999 8.58358 17.0436 8.46861 17.1749C8.44424 17.1785 8.41982 17.182 8.39263 17.1848C7.91345 17.2351 6.40368 17.4538 5.43189 17.366C5.27815 17.177 4.80223 17.0815 4.36239 17.0586C3.871 16.838 3.29735 16.4945 2.79788 16.0042C2.81184 15.9597 2.82119 15.9341 2.82119 15.9341C2.82119 15.9341 2.35484 14.8039 2.22584 15.3127C2.10507 15.13 1.99733 14.9332 1.90574 14.722C1.85807 13.9688 1.69532 13.3654 1.48453 12.952C1.39283 11.783 1.63137 10.6492 2.10797 10.0183ZM5.37887 7.43965C5.72102 7.33311 5.88607 7.21397 5.93175 7.17962C6.09512 7.05654 6.23424 6.90004 6.33942 6.71878L6.39564 6.62197C8.40569 6.46801 8.71894 6.00486 8.71894 6.00486C8.71894 6.00486 8.95394 6.03493 9.31934 5.78913C9.68485 5.54333 10.3635 5.39307 10.3635 5.39307C10.4419 6.28652 11.0684 5.87612 10.6245 6.24037C10.1809 6.60485 10.2853 8.12408 10.2853 8.12408L10.4679 8.07122L10.4941 8.5479L10.7289 8.5671C10.7289 8.96293 9.91176 9.29479 9.74326 9.35922C9.17275 8.78237 8.5749 8.215 8.1381 7.89424C7.0026 7.06048 5.37887 7.43965 5.37887 7.43965C5.37887 7.43965 7.76608 7.27887 5.28707 7.46672H5.28698C5.31959 7.4577 5.35043 7.44867 5.37887 7.43965ZM9.52377 4.67082C9.46719 5.45079 9.0452 5.57167 9.0452 5.57167L9.0192 5.35987C8.99296 5.1482 9.29322 4.18199 9.41072 3.93052C9.52822 3.67916 9.80224 3.79831 9.80224 3.79831C9.80224 3.79831 9.84149 3.85117 9.97188 4.24827C10.1025 4.64525 9.97188 5.26722 9.97188 5.26722C9.97188 5.26722 9.82186 5.33339 9.71086 5.03565C9.62222 4.79748 9.71086 4.3939 9.71086 4.3939C9.71086 4.3939 9.58036 3.89084 9.52377 4.67082ZM5.71696 6.23342C5.97801 5.78335 6.89168 3.93052 7.32238 3.66598L7.36154 3.50704C7.36154 3.50704 6.98303 3.5997 6.87861 3.33504C6.87861 3.33504 6.96997 3.13655 7.23102 3.18941L7.36154 2.92476C7.36154 2.92476 6.9177 3.0439 6.90469 2.63372C6.90469 2.63372 7.51809 2.60712 7.93573 2.23663C8.35351 1.86601 8.67984 1.81315 8.67984 1.81315C8.67984 1.81315 8.57534 2.07781 8.95394 2.14397C8.95394 2.14397 9.16271 1.81315 9.08433 1.25723C9.08433 1.25723 9.0322 1.05874 8.56228 1.37638C8.09242 1.69401 7.66172 2.10418 7.06133 1.95878C7.06133 1.95878 7.11346 1.69401 7.58338 1.54849C8.05329 1.40286 8.6667 0.595476 9.42384 0.714733C9.46023 0.720285 9.6326 1.24405 9.6326 1.95878C9.6326 2.67329 10.2069 3.14974 10.6508 3.14974C11.0944 3.14974 11.1988 2.93794 11.1988 2.93794L11.3554 2.99092C11.3554 2.99092 11.5382 1.66752 11.2249 1.24405C10.9118 0.820574 10.6508 0.714733 10.6508 0.714733C10.6508 0.714733 10.8687 0.210752 11.5382 0.185305C12.2079 0.159857 12.5041 0.555916 12.5041 1.05874C12.5041 1.56168 12.6608 2.85859 13.0523 3.14974C13.0523 3.14974 13.6527 3.2292 13.8093 2.99092C13.9509 2.77554 14.0072 2.20331 13.8624 1.46961C13.8265 1.28789 13.8708 1.09795 13.9865 0.954521C14.1468 0.755566 14.408 0.543425 14.736 0.674944C15.63 1.03341 16.474 1.87353 16.5764 2.03813C16.3306 1.85444 15.8761 1.56897 15.245 1.46243C15.0416 1.42808 14.8535 1.41802 14.6868 1.42126C14.5201 1.42461 14.3915 1.5707 14.4017 1.73935C14.4174 1.99776 14.4332 2.25617 14.449 2.51447C14.449 2.51447 14.449 3.18941 14.1879 3.48067C13.9267 3.7717 13.5483 4.04978 13.2612 3.86436C12.974 3.67916 12.7651 3.25558 12.6215 3.21602C12.478 3.17623 12.3344 3.18941 12.3344 3.18941C12.3344 3.18941 12.1777 3.38802 12.5171 3.81149C12.8565 4.23497 13.0654 4.26145 13.0654 4.26145C13.0654 4.26145 13.8093 4.12913 14.1617 4.12913C14.5141 4.12913 14.6707 4.19529 14.6707 4.19529C14.6707 4.19529 15.3234 5.51869 15.0624 5.95547C15.0624 5.95547 14.488 5.34669 14.4227 4.65844C14.4227 4.65844 14.2009 4.40709 14.1487 4.73791C14.0965 5.06873 14.1357 5.26722 14.1357 5.26722C14.1357 5.26722 13.9529 5.41285 13.8484 5.12159C13.7441 4.83056 13.7311 4.72472 13.6397 4.67163C13.5483 4.61877 13.496 4.92611 13.496 4.92611C13.496 4.92611 13.2612 4.72472 13.1567 4.68493C13.0523 4.64525 13.0654 4.72472 13.0654 4.72472C13.0654 4.72472 13.235 5.34669 13.1437 5.54518C13.0523 5.74367 13.0261 5.73048 12.713 5.41285C12.3997 5.09522 12.5564 5.5055 12.5564 5.5055C12.5564 5.5055 12.6992 6.07461 12.8431 6.41861L12.987 6.76274C12.987 6.76274 13.1959 6.36564 13.1959 6.41861C13.1959 6.47159 13.3134 7.4245 13.0523 7.66266C12.7913 7.90095 12.465 7.75532 12.465 7.75532C12.465 7.75532 12.2561 6.94793 12.4388 6.47159C12.4388 6.47159 11.8123 6.36564 11.3032 5.87612C10.7942 5.38636 10.2853 5.25403 10.2591 3.5997L10.1286 3.50704L10.0895 3.26888C10.0895 3.26888 9.66763 3.37472 9.42167 3.25558C9.17583 3.13655 9.04521 2.93794 9.07133 2.84529C9.09745 2.75275 8.44486 2.92476 8.44486 2.92476C8.44486 2.92476 8.28827 3.24239 8.44486 3.30867C8.60155 3.37472 8.94082 3.28206 9.0192 3.44088C9.09745 3.5997 9.13829 5.25392 8.27521 5.87612C8.27521 5.87612 8.04027 5.86281 8.27521 5.46583C8.51005 5.06873 8.94082 4.18199 8.77118 3.81149C8.7478 3.76048 8.73126 3.72208 8.71951 3.69235H8.45792L8.28827 3.90415C8.28827 3.90415 8.13158 4.94958 7.68774 5.53188C7.24404 6.11417 7.07439 6.20694 7.07439 6.20694C7.07439 6.20694 6.735 5.95547 7.07439 5.62465C7.41373 5.29383 8.09242 4.35399 8.04027 3.73203L7.988 3.54683C7.988 3.54683 7.74001 3.46749 7.53123 3.90415C7.32238 4.34081 6.16072 6.37906 6.00408 6.55106C5.84744 6.72306 5.71696 6.74944 5.71696 6.74944C5.71696 6.74944 5.45587 6.68327 5.71696 6.23342ZM17.1507 5.63783C17.6205 6.41861 17.6467 6.74944 17.6467 6.74944C17.6467 6.74944 17.5815 6.68327 16.7852 6.03482C15.989 5.38636 16.0673 4.10264 16.0673 4.10264C16.4198 4.27464 16.6808 4.85693 17.1507 5.63783ZM15.5249 4.34081C15.5958 4.7644 15.741 5.09521 16.0673 5.66432C16.3936 6.23343 16.1587 6.32596 16.1587 6.32596C15.2059 5.70388 15.0885 4.07615 15.0885 4.07615C15.0885 4.07615 15.4539 3.91733 15.5249 4.34081ZM14.8012 2.8321C14.7751 2.6889 14.7332 2.53922 14.7164 2.2962C14.7029 2.10002 14.7123 1.93703 14.723 1.82634C14.723 1.82634 15.2571 1.80795 15.5652 1.89181C15.8074 1.95786 16.1265 2.14594 16.4328 2.69977C16.2936 2.73956 16.1543 2.77924 16.0152 2.81891C16.0152 2.81891 16.1354 3.38802 16.2645 3.50704C16.2645 3.50704 16.0804 3.52035 15.8455 3.30867C15.6105 3.09687 15.4669 3.25558 15.4669 3.25558C15.4669 3.25558 15.6497 3.46749 15.5779 3.61289C15.5779 3.61289 15.4409 3.38802 15.232 3.52035C15.0232 3.65268 14.8012 3.70565 14.8012 3.70565C14.863 3.32579 14.8383 3.03418 14.8012 2.8321ZM13.9659 8.0534C14.3836 8.08672 14.5924 7.72894 14.5924 7.72894C15.0885 7.72894 15.3756 7.51171 15.3756 7.51171C15.3756 7.51171 13.7311 6.40543 13.5744 6.00486C13.4178 5.6044 14.0965 5.74032 14.0965 5.74032L14.1747 5.95246L14.6446 6.13036L14.749 6.27056L15.5323 6.31706L16.3936 7.35718L16.4062 7.35671L16.4178 7.37719C15.9492 7.42704 15.4286 7.567 14.9826 7.89424C14.5494 8.21234 13.9576 8.77334 13.3912 9.34534C13.389 9.34337 13.2083 9.18132 13.1044 8.65177C13 8.11887 13.1567 8.25826 13.47 8.24264C13.7833 8.22703 13.9659 8.0534 13.9659 8.0534ZM14.1879 7.0274C14.1569 6.98471 14.4325 7.06719 14.6169 7.27887C14.8012 7.49066 14.8666 7.51703 14.8666 7.51703C14.8666 7.51703 14.6577 7.60969 14.4227 7.57001C14.1879 7.53022 14.1879 7.72883 14.1879 7.72883H13.9399C13.9399 7.72883 13.7311 7.46417 13.8354 7.2127L14.227 7.37811C14.227 7.37811 14.3313 7.226 14.1879 7.0274ZM14.7338 17.5632C15.1736 17.5681 15.719 17.5879 16.202 17.5884C15.8731 18.0236 15.5699 18.4761 15.2905 18.9454C15.0713 18.3795 14.863 17.8726 14.7338 17.5632ZM12.2954 9.38316C12.2954 9.38316 12.4388 9.18456 12.4519 8.73459C12.465 8.28463 12.5564 8.35079 12.5564 8.35079C12.5564 8.35079 12.7913 8.50961 12.8826 8.97288C12.9488 9.30832 12.9398 9.46182 12.9446 9.51665C12.8999 9.49294 12.7898 9.46263 12.6477 9.46263C12.4388 9.46263 12.2954 9.38316 12.2954 9.38316ZM12.8992 9.85082C12.1905 10.5904 11.6219 11.2293 11.6219 11.2293L11.5603 11.6234L11.4988 11.2293C11.4988 11.2293 10.8537 10.5044 10.0812 9.70496L10.202 9.83046L12.8992 9.85082ZM10.8595 8.94523C10.99 8.62633 11.1728 8.62887 11.203 8.62887V9.03754C11.203 9.03754 11.3294 9.19774 11.0944 9.36986C10.8595 9.54198 10.5938 9.36986 10.5938 9.36986C10.5938 9.36986 10.7289 9.26402 10.8595 8.94523ZM12.0342 8.34744C12.0342 8.34744 12.1387 8.74535 12.0342 8.94523C11.9298 9.145 11.6557 9.11839 11.6557 9.11839L11.5382 9.11966C11.5382 9.11966 11.3947 8.58908 11.6557 8.50961C11.9167 8.43026 12.0342 8.34744 12.0342 8.34744ZM11.6557 7.68904C11.4991 7.71564 11.4861 7.99349 11.4861 7.99349C11.2511 7.8083 10.99 7.99349 10.99 7.99349C10.2461 7.55683 10.7682 6.59062 10.8204 6.41861C10.8725 6.24661 11.1206 6.2598 11.3164 6.49808C11.5121 6.73625 11.8123 6.69657 11.8123 6.69657C11.8123 6.69657 11.8123 7.66266 11.6557 7.68904ZM8.35351 12.3013C8.82332 12.6586 10.5854 12.8571 11.2369 12.8372C11.3955 12.8324 11.4968 12.7671 11.5603 12.6719C11.6241 12.7671 11.7253 12.8324 11.8838 12.8372C12.5354 12.8571 14.2973 12.6586 14.7674 12.3013C15.2373 11.944 14.8456 11.2492 14.924 10.8919C15.0022 10.5344 15.9615 9.34337 16.8231 9.3037C17.6845 9.26402 19.2312 9.89929 19.662 11.3484C20.0926 12.7977 19.9751 14.2865 18.8788 14.9019C17.7824 15.5172 16.7448 15.1797 16.5489 14.9019C16.3532 14.624 15.5309 14.6438 15.2176 15.0607C14.9044 15.4776 13.8079 16.2121 13.8079 16.6488C13.8079 16.6711 13.8082 16.6935 13.8084 16.716C13.5817 16.6071 13.3084 16.5619 13.1742 16.8689C12.9223 17.4457 12.4496 19.1018 12.5756 19.6591C12.7015 20.2164 13.5085 20.0461 13.6855 20.3356C14.8699 22.2727 13.6651 23.8433 12.4437 24.2922C12.4288 23.9921 12.31 21.5592 12.3278 21.122C12.347 20.653 12.4464 16.9528 12.4475 16.9155C12.4494 16.8463 12.4737 16.782 12.5177 16.7299C13.3999 15.6837 13.9776 15.0034 14.0169 14.9613C14.0597 14.9322 14.25 14.8828 14.3759 14.8503C14.4962 14.819 14.6205 14.7868 14.7112 14.7533C14.8369 14.7069 15.2401 14.405 16.1562 13.7008C16.5756 13.3783 17.0093 13.0449 17.1269 12.9735C17.4299 12.789 18.7243 12.0794 18.8369 12.0359L18.7888 11.8849L18.7515 11.7306C18.6273 11.7615 17.1491 12.5896 16.9657 12.7012C16.8336 12.7815 16.432 13.0902 15.967 13.4477C15.471 13.8291 14.7212 14.4054 14.6042 14.4549C14.528 14.483 14.4113 14.5132 14.2984 14.5423C14.032 14.6115 13.8776 14.6542 13.803 14.7301C13.7413 14.7925 12.9406 15.7398 12.2797 16.5233C12.1898 16.6299 12.1383 16.7658 12.1343 16.9067C12.1334 16.944 12.034 20.6422 12.0148 21.1087C11.9951 21.587 12.1267 24.2272 12.1322 24.3394L12.3339 24.329C12.0778 24.4089 11.8243 24.4396 11.595 24.4117C11.3783 24.3853 11.1665 24.3445 10.9619 24.2921H10.9769C10.9805 23.1473 11.0021 20.1041 11.0593 19.773C11.1212 19.4137 11.0842 17.7126 11.0653 16.9977C11.062 16.8744 11.023 16.756 10.9522 16.655C10.1131 15.4629 9.58321 14.8224 9.37729 14.7514C9.3093 14.728 9.23983 14.7068 9.16704 14.6844C8.93329 14.6128 8.66861 14.5317 8.29059 14.3252C8.08863 14.215 7.43587 13.7652 6.74484 13.2892C5.386 12.3527 4.54576 11.7806 4.33691 11.7304L4.26404 12.0393C4.44728 12.09 5.724 12.9696 6.56877 13.5517C7.29706 14.0535 7.92584 14.4868 8.14233 14.605C8.54793 14.8266 8.84077 14.9163 9.07635 14.9884C9.14571 15.0097 9.21165 15.03 9.27394 15.0512C9.39132 15.1052 9.88666 15.6878 10.6971 16.8392C10.7315 16.8884 10.7507 16.9461 10.7521 17.0062C10.7821 18.1401 10.7975 19.4479 10.7507 19.7182C10.6821 20.1147 10.6662 23.597 10.664 24.2051C9.73288 23.8935 9.02296 23.284 8.93694 22.3578C8.824 21.1404 9.47837 20.338 9.7792 20.2681C10.08 20.1981 10.3608 19.4531 10.1289 19.0135C9.89716 18.574 9.68554 17.3112 9.32402 17.1452C9.30485 17.1363 9.28546 17.1275 9.26595 17.1189C9.30713 16.9738 9.31284 16.8087 9.31284 16.6488C9.31284 16.2121 8.21639 15.4776 7.90325 15.0607C7.58997 14.6438 6.76766 14.624 6.57181 14.9019C6.37609 15.1797 5.33845 15.5172 4.24207 14.9019C3.14561 14.2865 3.02819 12.7977 3.45889 11.3484C3.88959 9.89929 5.43636 9.26402 6.29774 9.3037C7.15928 9.34337 8.11858 10.5344 8.19692 10.8919C8.27521 11.2492 7.88359 11.944 8.35351 12.3013ZM15.4747 23.9174C14.6643 25.493 13.2346 25.8519 12.2075 26.1293C11.1806 26.4066 9.4308 25.8012 8.32013 24.6134C7.20937 23.4258 7.12942 21.6728 7.22345 20.8113C7.26595 20.4222 7.48868 19.8627 7.74322 19.3211C7.8483 19.2856 7.92383 19.188 7.87259 19.053C8.14598 18.4981 8.42753 17.9968 8.54785 17.7667C8.59495 17.6765 8.63795 17.6083 8.67851 17.5571C8.83222 17.5448 8.94846 17.506 9.03676 17.4483C9.08639 17.4648 9.13932 17.486 9.19887 17.5039C9.45955 17.582 9.88198 19.1914 9.88198 19.1914L9.92123 19.6257C9.92123 19.6257 8.40208 20.6319 8.64129 22.2219C8.88036 23.8118 9.91438 24.4515 11.4303 24.6273C14.0117 24.9269 14.5456 22.4547 14.4291 21.5269C14.3124 20.5994 13.8948 20.2029 13.592 20.0845C13.2892 19.9662 12.888 19.657 12.865 19.3758C12.842 19.0946 13.1333 17.6469 13.3179 17.0926C13.4249 16.7706 13.6175 16.7912 13.8172 16.903C13.8467 17.2361 13.9732 17.5322 14.4787 17.5587C14.771 18.141 15.1569 19.2667 15.5203 20.0964C15.8945 20.9507 16.1476 21.8401 15.8568 22.9379C15.7126 23.2698 15.5939 23.5811 15.4968 23.871C15.489 23.8866 15.4826 23.9017 15.4747 23.9174ZM15.1435 26.5242C14.4296 26.3993 13.6814 26.3145 12.906 26.2712C13.8254 26.0378 14.7155 25.5121 15.2926 24.5672C15.0523 25.5271 15.0816 26.2358 15.1435 26.5242ZM6.91828 17.5882C7.35557 17.5878 7.8434 17.5717 8.25859 17.565C8.10988 17.9266 7.91247 18.3736 7.74015 18.7914C7.61679 18.5953 7.46381 18.4406 7.30753 18.2431C7.14488 18.0376 7.08227 17.7853 6.91828 17.5882ZM6.47867 17.8164C6.68699 17.9852 6.74403 18.2552 6.89186 18.4712C7.06453 18.7235 7.30232 18.879 7.41872 19.1772C7.44376 19.2413 7.48698 19.2835 7.53703 19.3086C7.49537 19.4218 7.45726 19.5303 7.42888 19.6251C7.25874 20.1921 6.6296 21.3184 7.17193 22.9203C7.71417 24.5224 8.9358 25.7914 10.4103 26.24C10.4304 26.246 10.4514 26.2515 10.4718 26.2575C9.56495 26.2964 8.69352 26.3913 7.8688 26.5405C7.99656 26.2607 8.08702 24.4166 6.42355 21.5122C6.42355 21.5122 5.57361 18.1588 5.48938 17.5312C5.75867 17.5466 5.98923 17.5452 6.16072 17.562C6.23817 17.5696 6.32551 17.5748 6.41703 17.5788C6.38219 17.6552 6.3911 17.7456 6.47867 17.8164ZM16.1453 21.5283C16.0313 20.9833 15.7529 20.1706 15.4636 19.3991C15.5286 19.3938 15.592 19.3605 15.6354 19.2864C15.9362 18.7718 16.2663 18.2781 16.6262 17.8041C16.6873 17.7234 16.6824 17.6437 16.643 17.5816C16.7582 17.5775 16.8654 17.5712 16.9601 17.562C17.1052 17.5477 17.2925 17.5468 17.5098 17.5375C17.4203 18.1826 16.5764 21.5122 16.5764 21.5122C16.4358 21.7577 16.3093 21.9945 16.1931 22.2241C16.2057 21.9975 16.1945 21.7635 16.1453 21.5283ZM19.4817 18.6168C19.8766 18.463 20.4245 18.1702 20.5704 17.6939C20.7777 17.0169 20.8542 16.4396 20.816 15.7408C20.9096 15.6149 20.996 15.4844 21.0788 15.3518C21.0787 15.3733 21.0786 15.3955 21.0786 15.4172C21.0697 17.408 20.9441 18.5068 20.492 19.3089C20.0222 20.1427 18.9258 20.9765 19.1999 20.3412C19.3351 20.0278 19.4321 19.2989 19.4817 18.6168ZM19.474 17.165C19.4561 17.1345 19.3978 17.11 19.3132 17.0916C19.5964 16.9413 19.885 16.7422 20.171 16.4701C20.2106 16.4324 20.2479 16.3926 20.2863 16.3539C20.377 16.8699 20.3777 17.7098 19.5152 17.971C19.5269 17.5536 19.5144 17.233 19.474 17.165ZM21.0128 10.0183C21.4579 10.6077 21.6957 11.6355 21.6506 12.721C21.349 13.1628 21.107 13.954 21.0818 14.9989C20.9956 15.1604 20.901 15.3139 20.7974 15.4568C20.7188 14.6251 20.1788 15.9341 20.1788 15.9341C20.1788 15.9341 20.196 15.9804 20.2183 16.0588C20.2216 16.0703 20.2252 16.0845 20.2287 16.0972C19.7559 16.5358 19.2269 16.8471 18.7688 17.0537C18.2895 17.0633 17.7195 17.1614 17.5607 17.3766C16.5891 17.4358 15.1865 17.2328 14.7282 17.1848C14.5697 17.1682 14.4629 17.1403 14.3884 17.1029L14.3109 17.0506C14.2049 16.9519 14.2232 16.8086 14.1996 16.6289C14.1603 16.3312 15.4917 15.2393 15.4917 15.2393L15.8833 15.0209C15.8833 15.0209 17.4865 16.1562 18.8788 15.2592C20.2712 14.3622 20.308 13.0755 19.936 11.4279C19.5641 9.78015 17.9112 9.16963 17.8215 9.11966C17.239 8.79497 16.5882 8.94639 15.7659 9.44632C14.9436 9.94625 14.7086 10.7331 14.7282 11.0904C14.7477 11.4477 14.6302 11.9837 14.3757 12.1227C14.1213 12.2617 12.6334 12.5594 12.0322 12.5991C11.7904 12.6151 11.6864 12.521 11.6508 12.3793C11.6592 12.2836 11.655 12.1855 11.645 12.0966C11.6656 11.9357 11.7113 11.7639 11.7327 11.6264C11.7915 11.2492 13.0836 10.0581 13.9059 9.11966C14.7282 8.1811 15.6875 7.4179 17.5199 7.5965C19.3522 7.77521 20.308 9.08542 21.0128 10.0183ZM22.5282 12.4791C22.3523 12.2877 22.1404 12.2773 21.9332 12.421C21.9325 12.2153 21.92 12.0095 21.8938 11.8051C21.722 10.4581 20.8141 8.6217 19.195 7.83802C19.1925 7.82391 19.1869 7.80945 19.1736 7.79603C19.1485 7.77093 19.1294 7.7456 19.112 7.7146C19.104 7.70072 19.0936 7.69216 19.0826 7.68591L19.0754 7.66949C19.0522 7.63548 19.0231 7.60957 18.9905 7.58806C18.972 7.56758 18.9526 7.54792 18.9313 7.53022C19 7.54491 19.0684 7.55937 19.1411 7.5766C18.6843 7.14631 18.1764 6.60531 17.6761 5.9395C17.2805 5.41354 16.9624 4.90644 16.707 4.44676C16.9418 4.57909 17.6467 4.57909 17.6467 4.57909C17.2291 4.26146 17.0462 3.44088 17.0462 3.44088C17.3335 3.57321 17.6467 3.49386 17.6467 3.49386C17.3595 3.17623 17.2029 2.59393 17.2029 2.59393C17.5161 2.62042 17.5161 2.46161 17.5161 2.46161C17.3074 2.32928 15.7933 0.9529 14.9057 0.502937C14.3438 0.218039 13.9545 0.598946 13.7445 0.916697C13.6243 1.09876 13.5914 1.32455 13.6585 1.53276C13.7974 1.96422 13.9834 2.77658 13.47 2.91157C12.7651 3.09687 12.6608 1.82634 12.6868 1.13821C12.713 0.449844 12.2954 -1.90735e-06 11.5382 -1.90735e-06C10.7812 -1.90735e-06 10.233 0.926413 10.233 0.926413C10.233 0.926413 10.7552 1.00576 10.9118 1.11172C11.0684 1.21767 11.4338 2.0645 11.0422 2.59393C10.6508 3.12336 10.1809 2.62042 9.97188 2.38225C9.76311 2.14397 9.94587 0.741104 9.68485 0.449844C9.42384 0.158813 7.88359 0.846947 7.17875 1.45573C6.474 2.06451 5.63867 2.17046 5.63867 2.17046C5.63867 2.51447 6.08237 2.4881 6.08237 2.4881C5.97801 2.85859 5.66473 3.28206 5.66473 3.28206L6.08237 3.41451C6.10849 3.89084 5.6908 4.26145 5.6908 4.26145H6.16072C6.06624 4.64502 5.92587 5.08492 5.71375 5.55328C5.30213 6.46234 4.77839 7.12942 4.35949 7.5766C4.45945 7.57927 4.55334 7.57684 4.64292 7.57152C2.57098 8.09366 1.42282 10.27 1.22696 11.8051C1.19644 12.0442 1.18552 12.2848 1.18967 12.5254C0.945687 12.2799 0.68263 12.2495 0.471718 12.4791C-0.0764947 13.0755 -0.233127 19.8166 0.471718 20.8331C1.08829 21.7225 3.55394 25.0009 4.58499 26.0972C4.38534 26.0513 4.1739 26.0265 3.95486 26.0265C2.7314 26.0265 1.73596 26.7965 1.73596 27.743C1.73596 27.7855 1.73966 27.8271 1.74367 27.8689L1.74353 27.8694L1.7438 27.8698C1.76506 28.0917 1.84046 28.3018 1.96114 28.4921L1.96168 28.4936L1.96292 28.4953C2.01921 28.5835 2.08533 28.6672 2.15943 28.7462L3.58544 30.5671C4.08633 31.0727 4.87166 31.1438 5.45284 30.7362C6.69458 29.872 8.52516 29.2803 10.6 29.1658C11.1961 29.1329 11.9618 29.1427 12.5131 29.1658C14.5893 29.2527 16.4186 29.872 17.6603 30.7362C18.2414 31.1438 19.0269 31.0727 19.5277 30.5671L20.9536 28.7462C21.0279 28.6672 21.094 28.5835 21.1501 28.4953L21.1515 28.4936L21.152 28.4921C21.2727 28.3018 21.3481 28.0917 21.3694 27.8698L21.3696 27.8694L21.3695 27.8689C21.3734 27.8271 21.3772 27.7855 21.3772 27.743C21.3772 26.7965 20.3817 26.0265 19.1582 26.0265C18.8831 26.0265 18.6198 26.0656 18.377 26.1368C19.3834 25.0841 21.9038 21.734 22.5282 20.8331C23.2331 19.8166 23.0765 13.0755 22.5282 12.4791Z" fill="#231F20"/>
<path d="M6.53268 16.7481C8.84294 16.7083 7.66827 16.2517 7.66827 16.2517C7.66827 16.2517 7.13962 15.5967 6.94377 15.676C6.74805 15.7555 6.88508 16.0532 6.2194 16.0929C5.55378 16.1327 4.06948 16.5916 3.00858 14.882C1.94768 13.1724 2.28421 12.9366 2.30373 12.6983C2.32334 12.4601 2.18631 11.6264 2.18631 11.6264C2.18631 11.6858 1.52063 13.3732 2.40164 14.624C3.28264 15.8745 4.22246 16.7878 6.53268 16.7481Z" fill="#231F20"/>
<path d="M15.7463 8.34741C14.7281 8.63057 13.0444 11.3087 12.7311 11.4675C12.4179 11.6264 12.2809 11.7852 12.4179 11.8645C12.555 11.944 13.2491 11.7653 13.597 11.7653C13.9451 11.7653 14.18 11.6462 14.1996 11.4675C14.2191 11.2889 14.0821 10.5145 14.5127 9.97873C14.9436 9.44271 15.6287 8.34741 17.1362 8.34741H17.8999C17.8999 8.34741 17.0188 7.99345 15.7463 8.34741Z" fill="#231F20"/>
<path d="M8.60796 9.97873C9.0387 10.5145 8.90169 11.2889 8.92132 11.4675C8.94082 11.6462 9.17583 11.7653 9.52377 11.7653C9.87183 11.7653 10.5659 11.944 10.7029 11.8645C10.8399 11.7852 10.7029 11.6264 10.3896 11.4675C10.0764 11.3087 8.39263 8.63057 7.3746 8.34741C6.10198 7.99345 5.22089 8.34741 5.22089 8.34741H5.98447C7.49203 8.34741 8.17726 9.44271 8.60796 9.97873Z" fill="#231F20"/>
<path d="M20.1122 14.882C19.0512 16.5916 17.5671 16.1327 16.9013 16.0929C16.2357 16.0532 16.3728 15.7555 16.1769 15.676C15.9812 15.5967 15.4525 16.2517 15.4525 16.2517C15.4525 16.2517 14.278 16.7083 16.5882 16.7481C18.8984 16.7878 19.8381 15.8745 20.7192 14.624C21.6002 13.3732 20.9345 11.6858 20.9345 11.6264C20.9345 11.6264 20.7974 12.4601 20.817 12.6983C20.8367 12.9366 21.1732 13.1724 20.1122 14.882Z" fill="#231F20"/>
<path d="M8.5076 23.4716C7.47606 21.8698 8.39249 20.7131 8.66589 20.1311C8.93945 19.5492 9.13635 19.7854 9.27291 19.64C9.40935 19.4945 9.05821 18.7712 9.05821 18.7712C9.05821 18.7712 9.10487 17.5439 8.23703 19.601C7.36903 21.658 7.78511 22.8483 8.50182 24.1143C9.21849 25.3801 10.8558 25.4248 10.9049 25.4474C10.9049 25.4474 10.2644 25.0074 10.0602 24.9344C9.85597 24.8614 9.53906 25.0735 8.5076 23.4716Z" fill="#231F20"/>
<path d="M13.7863 17.7179C13.6709 17.8107 13.568 18.5011 13.4422 18.8133C13.3165 19.1254 13.3301 19.3815 13.4708 19.467C13.6117 19.5524 14.3021 19.724 14.59 20.3141C14.8778 20.9044 15.5367 21.9356 14.9918 23.2877C14.862 23.6096 14.7157 23.9726 14.7157 23.9726C14.7157 23.9726 15.3271 23.317 15.4943 22.0409C15.628 21.0201 14.0199 18.4912 14.0017 18.1498C13.9835 17.8085 13.9016 17.6251 13.7863 17.7179Z" fill="#231F20"/>
<path d="M5.18658 11.0334C5.27579 11.1093 7.38753 12.8946 8.63216 13.3595C9.69147 13.7551 11.1024 15.0928 11.3742 15.3569C11.4265 15.4079 11.4941 15.4335 11.5617 15.4335C11.6281 15.4335 11.6945 15.4088 11.7466 15.3594C12.5477 14.601 13.0019 14.2077 13.109 14.1441C13.3436 14.1075 14.1019 13.7798 14.4166 13.589C14.7749 13.3721 17.9356 11.3407 18.0699 11.2543L17.9022 10.986C17.8693 11.0071 14.6106 13.1016 14.2561 13.3163C13.9142 13.5234 13.1819 13.817 13.0724 13.8299C12.9934 13.8299 12.9043 13.8299 11.5622 15.0998C11.1344 14.6869 9.80475 13.4588 8.7405 13.0614C7.54684 12.6155 5.40894 10.8081 5.38755 10.79L5.18658 11.0334Z" fill="#231F20"/>
<path d="M5.07317 29.3639C5.08038 29.4028 5.08096 29.4349 5.07508 29.4594C5.06492 29.5045 5.03582 29.5401 4.98752 29.5663C4.9405 29.5918 4.89246 29.5948 4.84331 29.5753C4.79429 29.5558 4.75075 29.5095 4.71323 29.4361C4.6758 29.363 4.66141 29.2979 4.6709 29.2414C4.68021 29.1848 4.71101 29.1421 4.76279 29.1138C4.81381 29.0861 4.85935 29.0797 4.89924 29.0948C4.92157 29.1034 4.94504 29.1209 4.96964 29.1476C5.02758 29.1171 5.05667 29.102 5.11497 29.072C5.09321 29.0315 5.05793 28.9983 5.00863 28.9729C4.91973 28.9274 4.81604 28.936 4.69906 28.9995C4.61163 29.047 4.55357 29.1141 4.52535 29.1993C4.49283 29.2973 4.50709 29.4029 4.56671 29.5165C4.62183 29.6213 4.69282 29.688 4.77829 29.7176C4.86372 29.7469 4.95343 29.7354 5.04851 29.6838C5.1253 29.6421 5.17757 29.5862 5.20551 29.5149C5.23359 29.4436 5.23716 29.3686 5.2154 29.2898C5.15836 29.3191 5.12998 29.3339 5.07317 29.3639Z" fill="#231F20"/>
<path d="M5.52472 29.2671C5.49392 29.198 5.4786 29.1634 5.44772 29.0943C5.58265 29.0284 5.65034 28.9964 5.78653 28.9345C5.76678 28.8871 5.75698 28.8636 5.73728 28.8163C5.60012 28.8789 5.53172 28.9112 5.39566 28.9777C5.37032 28.9206 5.35756 28.8921 5.33221 28.8351C5.48181 28.762 5.55712 28.7266 5.70819 28.6581C5.68827 28.6099 5.67824 28.5858 5.65828 28.5376C5.44705 28.6333 5.34224 28.6834 5.13377 28.788C5.25632 29.0553 5.31751 29.1891 5.44005 29.4562C5.64521 29.3534 5.74865 29.3042 5.95662 29.2101C5.93644 29.1613 5.92632 29.1367 5.90613 29.0878C5.75288 29.157 5.67654 29.193 5.52472 29.2671Z" fill="#231F20"/>
<path d="M6.23817 28.2896C6.30902 28.4826 6.3444 28.5791 6.41539 28.772C6.23246 28.6242 6.13924 28.5515 5.94949 28.4094C5.8859 28.4366 5.85421 28.4503 5.79085 28.4782C5.90105 28.7514 5.95604 28.888 6.06624 29.1613C6.11985 29.1374 6.14668 29.1259 6.20037 29.1028C6.12418 28.908 6.08608 28.8108 6.00973 28.6161C6.20238 28.7609 6.29699 28.8347 6.48246 28.9854C6.54053 28.9621 6.56958 28.9505 6.62787 28.9277C6.5288 28.65 6.47933 28.5111 6.38032 28.2332C6.32336 28.2554 6.29493 28.2668 6.23817 28.2896Z" fill="#231F20"/>
<path d="M7.05976 27.9874C6.81966 28.0676 6.70028 28.1105 6.46285 28.2014C6.48014 28.2507 6.4887 28.2753 6.50594 28.3247C6.59333 28.2913 6.63708 28.2749 6.72479 28.243C6.80153 28.4733 6.83985 28.5884 6.91658 28.8188C6.97563 28.7973 7.00518 28.7866 7.06436 28.7659C6.98989 28.5347 6.95281 28.4191 6.8784 28.1878C6.96605 28.157 7.00999 28.142 7.09787 28.1126C7.08258 28.0625 7.075 28.0376 7.05976 27.9874Z" fill="#231F20"/>
<path d="M7.62986 28.1379C7.61569 28.1504 7.59229 28.1616 7.55968 28.1714C7.49394 28.1912 7.46119 28.2013 7.39569 28.2218C7.37371 28.1455 7.3628 28.1074 7.34087 28.031C7.40892 28.0096 7.44301 27.9992 7.51119 27.9787C7.54296 27.9692 7.568 27.9663 7.58619 27.9701C7.6185 27.9766 7.64033 28.0014 7.65178 28.0447C7.66247 28.0848 7.65513 28.1158 7.62986 28.1379ZM7.90098 28.438C7.8954 28.427 7.88827 28.4051 7.87994 28.3725C7.8749 28.3533 7.87246 28.3436 7.8676 28.3244C7.85468 28.2743 7.83805 28.2389 7.81778 28.2184C7.7975 28.1978 7.76885 28.1859 7.73155 28.1823C7.76832 28.1571 7.79126 28.1257 7.80026 28.0879C7.80953 28.0501 7.80984 28.0143 7.80107 27.9803C7.79394 27.952 7.78302 27.9282 7.76809 27.9087C7.75325 27.8893 7.73564 27.8728 7.71528 27.8591C7.69055 27.8425 7.66284 27.8325 7.63231 27.8292C7.60187 27.8258 7.56087 27.831 7.50963 27.8454C7.36689 27.8878 7.29573 27.9101 7.15379 27.9564C7.23815 28.2395 7.28021 28.3809 7.3648 28.664C7.42251 28.6451 7.45133 28.6359 7.50932 28.6176C7.47732 28.5062 7.46128 28.4506 7.42933 28.3393C7.48824 28.3208 7.51779 28.3117 7.57691 28.2937C7.61912 28.281 7.64991 28.2801 7.66939 28.2907C7.68877 28.3013 7.70481 28.3294 7.71773 28.3748C7.72517 28.4011 7.72896 28.4143 7.73645 28.4407C7.74247 28.4618 7.7499 28.4817 7.75918 28.5005C7.76363 28.5096 7.77031 28.5213 7.77914 28.5358C7.84488 28.5166 7.87771 28.5073 7.94358 28.489L7.93899 28.4711C7.92228 28.4662 7.90966 28.4551 7.90098 28.438Z" fill="#231F20"/>
<path d="M8.20695 28.1302C8.21871 28.0072 8.22499 27.9457 8.23823 27.8225C8.30137 27.9271 8.3326 27.9793 8.39433 28.0843C8.31933 28.1021 8.28176 28.1112 8.20695 28.1302ZM8.11398 27.6793C8.07276 27.9946 8.05472 28.1522 8.02411 28.4669C8.08662 28.4498 8.11791 28.4414 8.18051 28.4253C8.18586 28.3612 8.18862 28.329 8.19442 28.2648C8.30092 28.2375 8.35445 28.2245 8.4614 28.1993C8.49334 28.2543 8.5093 28.2818 8.5408 28.337C8.60595 28.322 8.63863 28.3146 8.7039 28.3003C8.54406 28.0324 8.46171 27.8993 8.29215 27.6357C8.22085 27.6527 8.1852 27.6614 8.11398 27.6793Z" fill="#231F20"/>
<path d="M8.9228 28.1189C8.87922 27.8799 8.85754 27.7605 8.81396 27.5216C8.75065 27.5342 8.71894 27.5407 8.65569 27.554C8.71175 27.8447 8.7397 27.9901 8.79583 28.2805C9.00014 28.2375 9.1027 28.2178 9.30816 28.1827C9.29995 28.1301 9.29584 28.1038 9.28751 28.0512C9.14138 28.0762 9.06848 28.0898 8.9228 28.1189Z" fill="#231F20"/>
<path d="M10.0565 27.9327C10.0395 27.9435 10.0152 27.9508 9.9834 27.9546C9.91199 27.963 9.87628 27.9676 9.80498 27.977C9.79551 27.8986 9.79072 27.8595 9.78125 27.7811C9.85438 27.7714 9.891 27.7667 9.96435 27.7579C9.99641 27.7544 10.0217 27.7558 10.0401 27.7618C10.0733 27.7725 10.0917 27.7972 10.0955 27.8354C10.1001 27.8808 10.0871 27.9131 10.0565 27.9327ZM9.74669 27.4972C9.81274 27.4884 9.84571 27.4842 9.91176 27.4762C9.94804 27.4719 9.97929 27.4717 10.0026 27.4773C10.0303 27.484 10.0467 27.5064 10.0501 27.5406C10.0533 27.5716 10.0453 27.5944 10.0263 27.6088C10.0072 27.6232 9.98135 27.6325 9.94872 27.6364C9.87582 27.6451 9.8392 27.6497 9.76642 27.6593C9.75844 27.5945 9.75456 27.562 9.74669 27.4972ZM10.1216 27.6683C10.1453 27.6528 10.1632 27.637 10.1746 27.6202C10.1952 27.5904 10.2036 27.5532 10.1995 27.5081C10.1954 27.4645 10.1805 27.428 10.1541 27.399C10.1105 27.3521 10.0417 27.3328 9.94815 27.3423C9.8003 27.3597 9.72638 27.3693 9.57876 27.3906C9.61743 27.6843 9.63671 27.831 9.67527 28.1249C9.80635 28.1059 9.87195 28.0973 10.0034 28.0817C10.0404 28.0772 10.0744 28.07 10.1055 28.0599C10.1364 28.0496 10.1626 28.0343 10.1844 28.014C10.2036 27.996 10.219 27.975 10.2308 27.9504C10.2494 27.9135 10.2569 27.8734 10.2529 27.8297C10.249 27.7872 10.2362 27.7519 10.2142 27.7243C10.1922 27.6965 10.1611 27.6779 10.1216 27.6683Z" fill="#231F20"/>
<path d="M10.5844 27.7443C10.6151 27.6249 10.6308 27.5654 10.663 27.4462C10.7086 27.5601 10.7311 27.6172 10.7752 27.7313C10.6989 27.7359 10.6607 27.7386 10.5844 27.7443ZM10.5635 27.2834C10.4739 27.5873 10.4317 27.7395 10.3526 28.0446C10.4165 28.0386 10.4484 28.0359 10.5123 28.0307C10.5277 27.9683 10.5353 27.9371 10.5511 27.8747C10.6598 27.8663 10.7142 27.8627 10.823 27.8564C10.846 27.9161 10.8571 27.946 10.8796 28.0057C10.9459 28.0021 10.9791 28.0005 11.0454 27.9977C10.9304 27.7059 10.8703 27.5606 10.7451 27.2713C10.6724 27.2757 10.6362 27.2781 10.5635 27.2834Z" fill="#231F20"/>
<path d="M11.5858 27.2445C11.5862 27.4512 11.5865 27.5546 11.5869 27.7613C11.4684 27.5549 11.4071 27.4524 11.2805 27.2484C11.2131 27.25 11.1793 27.2511 11.112 27.2534C11.1217 27.5499 11.1265 27.6979 11.1362 27.9943C11.1932 27.9922 11.2217 27.9913 11.2788 27.99C11.2739 27.7796 11.2715 27.6745 11.2667 27.4642C11.395 27.6714 11.4571 27.7758 11.5771 27.9856C11.6382 27.9854 11.6688 27.9855 11.7302 27.986C11.7323 27.6896 11.7334 27.5414 11.7354 27.2448C11.6756 27.2444 11.6455 27.2443 11.5858 27.2445Z" fill="#231F20"/>
<path d="M12.3437 27.2625C12.2194 27.3785 12.1583 27.4373 12.0386 27.5561C12.0418 27.4338 12.0435 27.3729 12.0468 27.2507C11.9835 27.2487 11.952 27.2479 11.8887 27.2469C11.8836 27.5432 11.8811 27.6914 11.8761 27.9879C11.9363 27.989 11.9665 27.9899 12.0267 27.9915C12.0294 27.8925 12.0307 27.8428 12.0334 27.7438C12.0642 27.7145 12.0796 27.6998 12.1108 27.6706C12.1988 27.8031 12.242 27.8698 12.326 28.0037C12.4048 28.0078 12.444 28.01 12.5226 28.0152C12.4068 27.8327 12.3471 27.7421 12.2239 27.5621C12.3524 27.4455 12.4178 27.3879 12.551 27.2744C12.4681 27.2691 12.4267 27.2668 12.3437 27.2625Z" fill="#231F20"/>
<path d="M13.3776 27.9187C13.3367 27.9591 13.2858 27.9756 13.2251 27.9684C13.1644 27.9613 13.1181 27.9335 13.086 27.8846C13.0541 27.8359 13.0417 27.7698 13.0493 27.6868C13.0571 27.6037 13.0817 27.5416 13.1233 27.5005C13.1651 27.4595 13.2178 27.4425 13.2805 27.4499C13.3434 27.4572 13.3909 27.4859 13.4225 27.5357C13.454 27.5854 13.4644 27.6517 13.4545 27.7342C13.4445 27.8169 13.4187 27.8785 13.3776 27.9187ZM13.2945 27.3193C13.1851 27.3065 13.0978 27.3303 13.0354 27.3782C12.9566 27.439 12.9052 27.5365 12.894 27.6719C12.883 27.8044 12.9155 27.9093 12.9803 27.987C13.0305 28.0473 13.107 28.0865 13.2112 28.0988C13.3152 28.1109 13.3983 28.0905 13.4601 28.0432C13.5395 27.9824 13.5932 27.8875 13.6105 27.7556C13.628 27.6211 13.5988 27.5141 13.5349 27.4367C13.4843 27.3754 13.4041 27.3321 13.2945 27.3193Z" fill="#231F20"/>
<path d="M13.6782 28.1408C13.7386 28.15 13.7687 28.1547 13.8289 28.1646C13.8473 28.0419 13.8564 27.9805 13.8748 27.8577C14.0061 27.8792 14.0717 27.8906 14.2025 27.9153C14.2113 27.8646 14.2157 27.8393 14.2243 27.7885C14.0923 27.7637 14.0263 27.7522 13.8937 27.7304C13.9038 27.6631 13.9088 27.6294 13.9189 27.562C14.0717 27.587 14.1479 27.6005 14.3002 27.6297C14.3091 27.5784 14.3137 27.5528 14.3226 27.5015C14.106 27.46 13.9975 27.4414 13.7799 27.4084C13.7393 27.7014 13.7188 27.8479 13.6782 28.1408Z" fill="#231F20"/>
<path d="M15.1802 27.6916C15.1333 27.8925 15.1099 27.9929 15.0629 28.1937C14.9944 27.9634 14.9581 27.8485 14.8811 27.6188C14.8149 27.6034 14.7818 27.5959 14.7156 27.5812C14.657 27.8714 14.6278 28.0164 14.5694 28.3065C14.6256 28.3188 14.6537 28.3252 14.7097 28.3381C14.7531 28.1328 14.7748 28.0301 14.8182 27.8246C14.8962 28.0581 14.9329 28.175 15.002 28.4091C15.0619 28.4243 15.0918 28.4322 15.1516 28.448C15.2215 28.1608 15.2565 28.0171 15.3265 27.7298C15.2679 27.7143 15.2387 27.7067 15.1802 27.6916Z" fill="#231F20"/>
<path d="M15.4606 27.7663C15.3881 28.0529 15.3519 28.1962 15.2794 28.4828C15.3387 28.4993 15.3682 28.5076 15.4275 28.5248C15.5029 28.2389 15.5406 28.0962 15.616 27.8104C15.5538 27.7924 15.5228 27.7835 15.4606 27.7663Z" fill="#231F20"/>
<path d="M15.9743 28.4075C16.0409 28.4293 16.0741 28.4405 16.1405 28.4632C16.1188 28.5066 16.0874 28.537 16.0467 28.5546C16.0062 28.5723 15.961 28.573 15.911 28.5566C15.8601 28.5399 15.82 28.5073 15.7901 28.4585C15.7605 28.4096 15.7576 28.3417 15.7823 28.2544C15.8069 28.1677 15.8443 28.1086 15.8947 28.0776C15.9452 28.0466 16.0003 28.0406 16.0598 28.0599C16.0906 28.0701 16.1173 28.0846 16.1393 28.1036C16.1786 28.1378 16.1967 28.1811 16.1932 28.2331C16.2531 28.2535 16.283 28.2639 16.3428 28.285C16.3564 28.2144 16.3422 28.1465 16.2997 28.0816C16.2572 28.0166 16.1885 27.9681 16.0941 27.9372C15.9852 27.9018 15.8872 27.909 15.8018 27.9584C15.7163 28.0078 15.6586 28.0907 15.6273 28.2061C15.5963 28.32 15.605 28.4197 15.6485 28.5042C15.691 28.5867 15.7581 28.6444 15.8517 28.6746C15.9085 28.6931 15.96 28.6971 16.0062 28.6864C16.0331 28.6802 16.0659 28.6655 16.1049 28.642C16.0998 28.6793 16.0973 28.6979 16.0922 28.735C16.1312 28.7485 16.1507 28.7553 16.1895 28.7689C16.2381 28.6182 16.2624 28.5429 16.311 28.3922C16.1907 28.3497 16.1305 28.3292 16.0096 28.2896C15.9954 28.3369 15.9885 28.3605 15.9743 28.4075Z" fill="#231F20"/>
<path d="M16.6749 28.3003C16.8289 28.3586 16.9056 28.3887 17.0584 28.4515C17.0767 28.4026 17.0858 28.3781 17.1042 28.3292C16.8907 28.2415 16.7834 28.2 16.5675 28.1211C16.4741 28.401 16.4273 28.541 16.334 28.8208C16.5464 28.8984 16.6522 28.9396 16.8623 29.0262C16.881 28.9766 16.8903 28.9517 16.909 28.9021C16.7542 28.8384 16.6764 28.8076 16.5202 28.7486C16.545 28.6769 16.5573 28.641 16.582 28.5693C16.7209 28.6217 16.79 28.649 16.9277 28.7051C16.9456 28.6572 16.9545 28.6331 16.9725 28.5852C16.8335 28.5286 16.7638 28.5012 16.6238 28.4483C16.6443 28.3892 16.6545 28.3596 16.6749 28.3003Z" fill="#231F20"/>
<path d="M17.5056 28.8449C17.4868 28.8452 17.4617 28.8382 17.4301 28.824C17.3667 28.7953 17.3348 28.7813 17.2712 28.7535C17.3005 28.68 17.3151 28.6432 17.3443 28.5696C17.4106 28.5986 17.4436 28.6131 17.5095 28.6428C17.5401 28.6566 17.5615 28.6712 17.5734 28.6862C17.5948 28.713 17.5967 28.7467 17.5794 28.7878C17.5634 28.8258 17.5388 28.8449 17.5056 28.8449ZM17.6697 28.9204C17.6999 28.8975 17.722 28.8699 17.736 28.8379C17.7475 28.8114 17.7533 28.7856 17.7535 28.7606C17.7538 28.7357 17.75 28.7112 17.7423 28.6869C17.733 28.6575 17.7172 28.6313 17.6955 28.6083C17.6736 28.5854 17.6383 28.5621 17.5895 28.5389C17.4518 28.4764 17.3825 28.4461 17.2438 28.3873C17.1376 28.6622 17.0844 28.7997 16.9782 29.0745C17.0348 29.0985 17.063 29.1105 17.1192 29.135C17.162 29.0277 17.1834 28.974 17.226 28.8668C17.2834 28.8917 17.312 28.9044 17.3692 28.9299C17.41 28.9483 17.4346 28.9683 17.4435 28.9894C17.4521 29.0106 17.4477 29.043 17.4302 29.0866C17.4201 29.112 17.4149 29.1247 17.4048 29.1501C17.3966 29.1703 17.3904 29.1907 17.3862 29.2114C17.3841 29.2213 17.3823 29.2348 17.3803 29.252C17.4435 29.2811 17.4749 29.2959 17.5379 29.3258L17.5452 29.3089C17.5349 29.294 17.532 29.277 17.5355 29.2578C17.5378 29.2457 17.5456 29.2241 17.5588 29.1933C17.5667 29.1752 17.5707 29.1662 17.5784 29.1479C17.5988 29.1006 17.6073 29.0622 17.6039 29.0328C17.6005 29.0035 17.5854 28.975 17.5582 28.9473C17.6025 28.9525 17.6396 28.9436 17.6697 28.9204Z" fill="#231F20"/>
<path d="M17.9502 28.7083C17.8306 28.9772 17.771 29.1117 17.6514 29.3805C17.7079 29.4079 17.7361 29.4218 17.7924 29.4501C17.9146 29.1826 17.9759 29.0488 18.0982 28.7814C18.0391 28.7518 18.0095 28.7372 17.9502 28.7083Z" fill="#231F20"/>
<path d="M18.4038 29.4579C18.334 29.4196 18.2992 29.4006 18.229 29.3634C18.3151 29.2782 18.3585 29.2359 18.4459 29.1518C18.4297 29.2745 18.4212 29.3356 18.4038 29.4579ZM17.8766 29.4926C17.9356 29.5227 17.9651 29.5378 18.024 29.5687C18.0682 29.5237 18.0905 29.5013 18.1351 29.4566C18.2351 29.5095 18.2849 29.5364 18.384 29.5913C18.3746 29.6552 18.3698 29.6869 18.36 29.7505C18.4202 29.7843 18.4503 29.8014 18.5103 29.8359C18.5531 29.5222 18.572 29.3644 18.6048 29.0475C18.5385 29.011 18.5053 28.993 18.4387 28.9576C18.2094 29.168 18.097 29.2751 17.8766 29.4926Z" fill="#231F20"/>
<path d="M6.53268 16.7481C4.22246 16.7877 3.28265 15.8745 2.40164 14.624C1.52063 13.3732 2.18631 11.6858 2.18631 11.6264C2.18631 11.6264 2.32334 12.4601 2.30373 12.6983C2.28422 12.9366 1.94768 13.1724 3.00858 14.8819C4.06948 16.5916 5.55378 16.1327 6.2194 16.0929C6.88508 16.0532 6.74805 15.7555 6.94377 15.676C7.13962 15.5967 7.66827 16.2517 7.66827 16.2517C7.66827 16.2517 8.84294 16.7083 6.53268 16.7481ZM7.3746 8.34741C8.39263 8.63058 10.0764 11.3087 10.3896 11.4675C10.7029 11.6264 10.8399 11.7852 10.7029 11.8645C10.5659 11.944 9.87183 11.7653 9.52377 11.7653C9.17583 11.7653 8.94082 11.6463 8.92132 11.4675C8.90169 11.2889 9.0387 10.5145 8.60796 9.97873C8.17726 9.44271 7.49203 8.34741 5.98447 8.34741H5.22089C5.22089 8.34741 6.10198 7.99346 7.3746 8.34741ZM8.92132 16.6289C8.96033 16.3312 7.62906 15.2392 7.62906 15.2392L7.23743 15.0209C7.23743 15.0209 5.6343 16.1562 4.24207 15.2591C2.84971 14.3622 2.81286 13.0755 3.18482 11.4279C3.55684 9.78012 5.20966 9.16961 5.29919 9.11964C5.88184 8.79495 6.53268 8.94636 7.35499 9.44629C8.17726 9.94623 8.41224 10.733 8.39263 11.0903C8.37302 11.4476 8.49054 11.9837 8.74506 12.1227C8.99957 12.2616 10.4875 12.5594 11.0887 12.599C11.6898 12.6388 11.4468 12.0034 11.3882 11.6264C11.3294 11.2492 10.0372 10.0581 9.21496 9.11964C8.39263 8.18108 7.43329 7.41788 5.60087 7.59647C3.76846 7.77519 2.81286 9.0854 2.10797 10.0183C1.40313 10.9514 1.21628 12.9838 1.85338 14.6041C2.49068 16.2243 4.10496 17.0259 4.9561 17.284C5.80712 17.542 7.82491 17.2443 8.39263 17.1847C8.96033 17.1253 8.88207 16.9267 8.92132 16.6289Z" fill="#D8AF7F"/>
<path d="M20.7192 14.624C19.8381 15.8745 18.8984 16.7877 16.5882 16.7481C14.278 16.7083 15.4525 16.2517 15.4525 16.2517C15.4525 16.2517 15.9812 15.5967 16.1769 15.676C16.3728 15.7555 16.2357 16.0532 16.9013 16.0929C17.5671 16.1327 19.0512 16.5916 20.1123 14.8819C21.1732 13.1724 20.8367 12.9366 20.817 12.6983C20.7974 12.4601 20.9345 11.6264 20.9345 11.6264C20.9345 11.6858 21.6002 13.3732 20.7192 14.624ZM17.1362 8.34741C15.6287 8.34741 14.9436 9.44271 14.5127 9.97873C14.0821 10.5145 14.2191 11.2889 14.1996 11.4675C14.18 11.6463 13.9451 11.7653 13.597 11.7653C13.2491 11.7653 12.555 11.944 12.4179 11.8645C12.2809 11.7852 12.4179 11.6264 12.7311 11.4675C13.0444 11.3087 14.7281 8.63058 15.7463 8.34741C17.0188 7.99346 17.8999 8.34741 17.8999 8.34741H17.1362ZM21.0128 10.0183C20.308 9.0854 19.3522 7.77519 17.5199 7.59647C15.6875 7.41788 14.7282 8.18108 13.9059 9.11964C13.0836 10.0581 11.7915 11.2492 11.7327 11.6264C11.6738 12.0034 11.4311 12.6388 12.0322 12.599C12.6334 12.5594 14.1213 12.2616 14.3757 12.1227C14.6302 11.9837 14.7477 11.4476 14.7282 11.0903C14.7086 10.733 14.9436 9.94623 15.7659 9.44629C16.5882 8.94636 17.239 8.79495 17.8215 9.11964C17.9112 9.16961 19.5641 9.78012 19.936 11.4279C20.308 13.0755 20.2712 14.3622 18.8788 15.2591C17.4865 16.1562 15.8833 15.0209 15.8833 15.0209L15.4917 15.2392C15.4917 15.2392 14.1603 16.3312 14.1996 16.6289C14.2387 16.9267 14.1603 17.1253 14.7282 17.1847C15.2959 17.2443 17.3136 17.542 18.1648 17.284C19.0158 17.0259 20.6302 16.2243 21.2673 14.6041C21.9045 12.9838 21.7176 10.9514 21.0128 10.0183Z" fill="#D8AF7F"/>
<path d="M15.4943 22.0408C15.3272 23.3169 14.7157 23.9726 14.7157 23.9726C14.7157 23.9726 14.862 23.6096 14.9918 23.2877C15.5367 21.9356 14.8778 20.9044 14.59 20.3141C14.3021 19.724 13.6117 19.5524 13.4708 19.4669C13.3301 19.3815 13.3165 19.1254 13.4422 18.8133C13.568 18.5011 13.6709 17.8106 13.7863 17.7179C13.9016 17.6251 13.9835 17.8084 14.0017 18.1498C14.0199 18.4911 15.628 21.0201 15.4943 22.0408ZM8.50182 24.1143C7.78511 22.8482 7.36903 21.658 8.23703 19.601C9.10487 17.5439 9.05821 18.7712 9.05821 18.7712C9.05821 18.7712 9.40935 19.4945 9.27291 19.64C9.13636 19.7854 8.93945 19.5492 8.66589 20.1311C8.39249 20.7131 7.47607 21.8698 8.5076 23.4716C9.53906 25.0735 9.85597 24.8614 10.0602 24.9344C10.2644 25.0074 10.9049 25.4474 10.9049 25.4474C10.8558 25.4248 9.21849 25.38 8.50182 24.1143ZM14.2311 17.1939C13.9402 16.9977 13.5022 16.5382 13.3179 17.0925C13.1333 17.6468 12.842 19.0946 12.865 19.3758C12.888 19.657 13.2892 19.9662 13.592 20.0845C13.8948 20.2028 15.343 21.7307 13.6747 23.8892C13.6159 23.9654 12.9284 24.9202 11.4303 24.6273C9.93207 24.3343 8.88036 23.8118 8.64129 22.2219C8.40208 20.6319 9.92123 19.6256 9.92123 19.6256L9.88198 19.1914C9.88198 19.1914 9.45955 17.5819 9.19887 17.5039C8.93831 17.4257 8.80233 17.28 8.54785 17.7667C8.29326 18.2533 7.31743 19.9497 7.22345 20.8113C7.12942 21.6728 7.20937 23.4258 8.32013 24.6134C9.4308 25.8012 11.1806 26.4065 12.2075 26.1292C13.2346 25.8519 14.6643 25.493 15.4747 23.9174C16.2849 22.3417 15.9999 21.1909 15.5203 20.0964C15.0408 19.0019 14.5221 17.3899 14.2311 17.1939Z" fill="#D8AF7F"/>
</svg>
